<?xml version="1.0" encoding="UTF-8"?>
<!DOCTYPE svg PUBLIC "-//W3C//DTD SVG 1.1//EN" "http://www.w3.org/Graphics/SVG/1.1/DTD/svg11.dtd">
<!-- Creator: CorelDRAW X8 -->
<svg xmlns="http://www.w3.org/2000/svg" xml:space="preserve" width="338.667mm" height="190.5mm" version="1.1" style="shape-rendering:geometricPrecision; text-rendering:geometricPrecision; image-rendering:optimizeQuality; fill-rule:evenodd; clip-rule:evenodd"
viewBox="0 0 33867 19050"
 xmlns:xlink="http://www.w3.org/1999/xlink">
 <defs>
  <style type="text/css">
   <![CDATA[
    .fil0 {fill:#BA2F00}
   ]]>
  </style>
 </defs>
 <g id="Camada_x0020_1">
  <metadata id="CorelCorpID_0Corel-Layer"/>
  <path class="fil0" d="M29948 15673l625 7 -62 395 -630 -10 67 -392zm-29948 -15673l227 0 -54 380 -173 -3 0 -377zm276 0l543 0 -55 390 -542 -7 54 -383zm596 0l540 0 -53 405 -542 -12 55 -393zm589 0l545 0 -52 430 -542 -25 49 -405zm598 0l541 0 -56 455 -537 -23 52 -432zm590 0l296 0 243 12 -49 473 -546 -28 56 -457zm1224 0l502 0 -2 35 -500 -35zm555 0l538 0 -3 79 -537 -39 2 -40zm586 0l534 0 -3 122 -533 -40 2 -82zm588 0l536 0 -3 166 -537 -39 4 -127zm585 0l532 0 -2 219 -533 -50 3 -169zm581 0l539 0 0 273 -541 -52 2 -221zm588 0l534 0 3 330 -537 -52 0 -278zm583 0l531 0 0 383 -528 -50 -3 -333zm585 0l524 0 13 447 -537 -57 0 -390zm573 0l107 0 425 50 13 462 -532 -57 -13 -455zm448 0l84 0 0 10 -84 -10zm137 0l526 0 3 77 -529 -62 0 -15zm571 0l528 0 7 144 -533 -62 -2 -82zm579 0l527 0 15 216 -533 -64 -9 -152zm575 0l521 0 23 291 -529 -67 -15 -224zm572 0l525 0 28 368 -532 -70 -21 -298zm573 0l519 0 38 442 -528 -72 -29 -370zm567 0l51 0 477 69 44 453 -528 -75 -44 -447zm338 0l182 0 3 27 -185 -27zm231 0l515 0 12 107 -524 -75 -3 -32zm563 0l519 0 22 189 -528 -75 -13 -114zm569 0l511 0 38 276 -524 -80 -25 -196zm557 0l515 0 50 360 -529 -79 -36 -281zm567 0l509 0 66 442 -524 -77 -51 -365zm791 0l277 0 8 45 -285 -45zm325 0l509 0 24 127 -524 -77 -9 -50zm556 0l507 0 43 214 -524 -80 -26 -134zm559 0l504 0 64 301 -524 -80 -44 -221zm550 0l500 0 82 385 -520 -77 -62 -308zm547 0l277 0 237 37 98 438 -524 -80 -88 -395zm549 0l494 0 26 82 -519 -80 -1 -2zm541 0l497 0 55 169 -524 -80 -28 -89zm539 0l493 0 83 253 -519 -79 -57 -174zm537 0l489 0 114 338 -515 -77 -88 -261zm536 0l489 0 151 420 -520 -72 -120 -348zm534 0l18 0 496 69 160 430 -524 -72 -150 -427zm298 0l196 0 11 30 -207 -30zm241 0l486 0 44 112 -515 -72 -15 -40zm532 0l483 0 79 191 -515 -72 -47 -119zm534 0l484 0 112 266 -515 -70 -81 -196zm528 0l490 0 146 338 -519 -67 -117 -271zm536 0l485 0 179 412 -515 -69 -149 -343zm528 0l90 0 419 55 191 427 -515 -62 -185 -420zm374 0l111 0 6 15 -117 -15zm157 0l489 0 35 77 -515 -57 -9 -20zm531 0l484 0 64 139 -510 -57 -38 -82zm529 0l491 0 96 201 -519 -57 -68 -144zm537 0l482 0 128 258 -511 -52 -99 -206zm527 0l488 0 154 306 -515 -43 -127 -263zm534 0l487 0 180 358 -510 -47 -157 -311zm529 0l489 0 209 408 -511 -45 -187 -363zm535 0l153 0 347 27 226 423 -515 -38 -211 -412zm663 0l359 0 11 20 -370 -20zm406 0l491 0 28 50 -506 -28 -13 -22zm539 0l488 0 47 82 -507 -30 -28 -52zm536 0l495 0 63 109 -511 -25 -47 -84zm538 0l501 0 74 124 -511 -12 -64 -112zm552 0l498 0 80 134 -506 -12 -72 -122zm544 0l131 0 0 137 -48 0 -83 -137zm131 174l0 43 -26 -43 26 0zm0 119l0 297 -333 -6 -248 -423 510 13 71 119zm0 336l0 414 -62 -2 -253 -420 315 8zm0 453l0 84 -48 -85 48 1zm0 173l0 238 -386 -9 -226 -413 515 10 97 174zm0 275l0 409 -173 -3 -191 -413 364 7zm0 448l0 341 -164 -343 164 2zm0 443l0 402 -346 -15 -182 -410 528 23zm0 437l0 400 -164 -7 -164 -405 328 12zm0 437l0 399 -17 -1 -134 -405 151 7zm0 589l0 245 -457 -21 -137 -405 541 27 53 154zm0 282l0 394 -315 -14 -133 -401 448 21zm0 431l0 397 -182 -8 -119 -403 301 14zm0 433l0 394 -71 -4 -97 -397 168 7zm0 431l0 278 -66 -281 66 3zm0 483l0 341 -479 -17 -93 -398 559 23 13 51zm0 378l0 395 -390 -14 -85 -398 475 17zm0 432l0 393 -324 -12 -57 -395 381 14zm0 427l0 394 -266 -10 -58 -395 324 11zm0 431l0 390 -204 -7 -58 -392 262 9zm0 427l0 393 -146 -4 -53 -395 199 6zm0 430l0 390 -119 -4 -32 -390 151 4zm0 427l0 392 -88 -3 -27 -393 115 4zm0 427l0 392 -62 -2 -26 -393 88 3zm0 429l0 391 -35 0 -27 -393 62 2zm0 424l0 392 -35 0 0 -393 35 1zm0 428l0 392 -35 -1 -5 -393 40 2zm0 429l0 391 -44 -1 4 -391 40 1zm0 428l0 388 -53 -1 13 -388 40 1zm0 423l0 390 -80 -1 27 -391 53 2zm0 427l0 391 -106 -2 26 -390 80 1zm0 429l0 390 -137 -2 26 -391 111 3zm0 425l0 391 -173 -3 36 -391 137 3zm0 426l0 391 -222 -4 45 -391 177 4zm0 428l0 390 -275 -4 45 -390 230 4zm0 428l0 388 -319 -5 44 -388 275 5zm0 425l0 392 -395 -7 67 -390 328 5zm0 427l0 391 -466 -5 67 -390 399 4zm0 428l0 389 -537 -6 62 -390 475 7zm0 427l0 372 -4 16 -626 -5 89 -390 541 7zm0 617l0 202 -48 -1 48 -201zm0 237l0 392 -146 0 89 -393 57 1zm0 427l0 391 -275 -1 124 -390 151 0zm0 428l0 392 -412 0 124 -393 288 1zm0 429l0 390 -581 0 155 -390 426 0zm0 428l0 20 -149 310 -600 0 150 -330 599 0zm0 140l0 190 -91 0 91 -190zm-803 190l-601 0 144 -333 608 3 -151 330zm-663 0l-599 0 143 -333 604 0 -148 333zm-654 0l-600 0 137 -333 603 0 -140 333zm-658 0l-599 0 128 -335 604 2 -133 333zm-653 0l-604 0 124 -338 604 3 -124 335zm-662 0l-601 0 117 -340 604 2 -120 338zm-655 0l-600 0 110 -343 604 3 -114 340zm-654 0l-605 0 103 -345 608 2 -106 343zm-662 0l-602 0 101 -348 608 3 -107 345zm-655 0l-600 0 92 -350 608 2 -100 348zm-658 0l-601 0 85 -355 609 5 -93 350zm-658 0l-601 0 82 -358 608 3 -89 355zm-659 0l-601 0 75 -365 608 5 -82 360zm-654 0l-602 0 69 -370 608 5 -75 365zm-659 0l-605 0 65 -373 608 3 -68 370zm-659 0l-600 0 57 -375 608 0 -65 375zm-657 0l-600 0 53 -380 604 2 -57 378zm-654 0l-600 0 45 -383 604 3 -49 380zm-662 0l-600 0 41 -388 604 5 -45 383zm-654 0l-599 0 33 -393 604 3 -38 390zm-653 0l-599 0 25 -398 603 5 -29 393zm-662 0l-599 0 21 -403 603 5 -25 398zm-653 0l-599 0 12 -407 608 4 -21 403zm-657 0l-600 0 4 -412 609 5 -13 407zm-658 0l-599 0 0 -420 608 5 -9 415zm-657 0l-599 0 -9 -422 608 2 0 420zm-653 0l-599 0 -17 -427 608 5 8 422zm-657 0l-599 0 -26 -430 608 3 17 427zm-657 0l-599 0 -31 -435 608 5 22 430zm-657 0l-599 0 -35 -440 603 5 31 435zm-652 0l-599 0 -45 -445 604 5 40 440zm-661 0l-12 0 -588 -7 -49 -443 604 5 45 445zm-12697 -42l0 -472 58 0 182 472 -240 0zm0 -517l0 -100 40 100 -40 0zm0 -238l0 -236 520 4 182 475 -609 -5 -93 -238zm0 -281l0 -474 404 4 98 474 -502 -4zm0 -520l0 -473 302 3 93 475 -395 -5zm0 -517l0 -475 236 3 53 475 -289 -3zm0 -520l0 -474 218 2 18 475 -236 -3zm0 -519l0 -476 213 4 9 475 -222 -3zm0 -521l0 -476 267 6 -49 474 -218 -4zm0 -519l0 -476 324 5 -53 475 -271 -4zm0 -522l0 -476 426 10 -97 472 -329 -6zm0 -521l0 -472 546 13 -106 469 -440 -10zm0 -517l0 -300 45 -177 626 18 -116 472 -555 -13zm0 -521l0 -477 151 2 -151 475 0 0zm0 -520l0 -475 311 5 -146 473 -165 -3zm0 -517l0 -475 493 8 -169 472 -324 -5zm0 -520l0 -295 67 -176 621 12 -182 467 -506 -8zm0 -459l0 -13 5 1 -5 12zm0 -58l0 -475 200 6 -178 470 -22 -1zm0 -520l0 -472 409 11 -187 467 -222 -6zm0 -518l0 -472 0 0 608 15 -182 469 -426 -12zm0 -597l0 -394 156 4 -156 390zm0 -439l0 -473 360 10 -187 468 -173 -5zm0 -516l0 -473 564 17 -186 467 -378 -11zm0 -516l0 -34 169 -436 595 18 -182 467 -582 -15zm0 -184l0 -289 111 3 -111 286zm0 -334l0 -475 307 9 -178 470 -129 -4zm0 -519l0 -469 493 15 -173 465 -320 -11zm0 -514l0 -201 102 -271 577 22 -168 465 -511 -15zm0 -342l0 -131 49 1 -49 130zm0 -174l0 -473 218 5 -156 470 -62 -2zm0 -517l0 -469 382 9 -151 464 -231 -4zm0 -511l0 -471 551 12 -151 467 -400 -8zm0 -516l0 -30 125 -437 568 12 -129 467 -564 -12zm0 -226l0 -245 67 1 -67 244zm0 -288l0 -470 204 2 -124 470 -80 -2zm0 -515l0 -468 342 6 -124 464 -218 -2zm0 -513l0 -472 471 8 -120 470 -351 -6zm0 -517l0 -385 18 -86 550 10 -88 470 -480 -9zm0 -651l0 -336 67 1 -67 335zm0 -381l0 -471 165 3 -94 470 -71 -2zm30156 4366l555 35 71 397 -555 -32 -71 -400zm-19422 -2073l555 55 -53 450 -559 -55 57 -450zm-9730 -683l559 25 -111 467 -564 -25 116 -467zm399 -2053l542 25 -80 467 -542 -23 80 -469zm-781 1014l550 12 -84 472 -555 -12 89 -472zm93 -512l550 12 -84 467 -550 -12 84 -467zm-599 -13l546 13 -85 467 -550 -10 89 -470zm97 -512l542 8 -84 472 -546 -12 88 -468zm595 10l546 13 -84 469 -546 -12 84 -470zm417 1039l547 25 -85 470 -550 -23 88 -472zm600 25l550 25 -75 470 -555 -23 80 -472zm84 -512l551 25 -76 467 -550 -25 75 -467zm-595 -25l542 23 -76 469 -550 -25 84 -467zm1115 562l546 30 -76 467 -550 -25 80 -472zm599 30l555 25 -76 467 -555 -25 76 -467zm80 -510l546 23 -67 467 -550 -23 71 -467zm-600 -30l546 28 -71 467 -550 -30 75 -465zm80 -514l546 27 -71 470 -550 -27 75 -470zm595 30l542 25 -67 467 -541 -22 66 -470zm58 -517l542 25 -54 472 -537 -25 49 -472zm-1243 462l542 22 -76 470 -546 -22 80 -470zm4142 249l541 47 -44 462 -546 -45 49 -464zm-2366 -169l546 37 -67 467 -546 -35 67 -469zm-142 1024l546 37 -67 467 -550 -35 71 -469zm599 39l550 38 -66 467 -551 -37 67 -468zm66 -509l546 37 -57 465 -551 -37 62 -465zm-594 -40l541 35 -62 467 -546 -35 67 -467zm1127 589l546 37 -58 465 -550 -35 62 -467zm599 40l551 37 -58 465 -550 -35 57 -467zm67 -507l542 37 -49 462 -555 -34 62 -465zm-604 -40l551 37 -62 463 -546 -38 57 -462zm67 -512l542 37 -54 468 -550 -38 62 -467zm595 42l537 38 -49 464 -541 -37 53 -465zm40 -512l537 38 -36 469 -537 -39 36 -468zm-591 -44l537 39 -35 468 -542 -38 40 -469zm-630 472l537 37 -62 467 -542 -37 67 -467zm49 -515l532 38 -39 469 -538 -37 45 -470zm-591 -42l537 37 -44 470 -546 -37 53 -470zm2198 1703l546 39 -53 468 -551 -43 58 -464zm595 47l555 47 -49 462 -555 -47 49 -462zm57 -507l542 47 -40 462 -555 -47 53 -462zm-595 -50l547 45 -54 462 -546 -42 53 -465zm1141 609l546 47 -44 463 -550 -48 48 -462zm595 50l551 47 -40 462 -551 -47 40 -462zm45 -502l541 44 -31 460 -550 -45 40 -459zm-595 -55l546 52 -40 458 -546 -48 40 -462zm49 -507l537 50 -36 464 -546 -52 45 -462zm586 55l541 49 -35 463 -542 -48 36 -464zm31 -507l528 49 -18 463 -537 -48 27 -464zm-586 -57l537 52 -27 464 -537 -49 27 -467zm-622 454l542 53 -45 462 -541 -50 44 -465zm31 -509l542 52 -27 465 -541 -50 26 -467zm-581 -52l532 47 -26 467 -542 -47 36 -467zm-302 2545l559 42 -84 460 -560 -43 85 -459zm-2428 -152l554 32 -97 463 -560 -33 103 -462zm-231 1019l559 30 -106 467 -564 -32 111 -465zm617 35l568 32 -107 465 -568 -32 107 -465zm115 -512l560 35 -98 464 -568 -32 106 -467zm-617 -35l564 32 -102 465 -568 -30 106 -467zm1119 582l564 34 -102 465 -569 -32 107 -467zm621 37l560 35 -94 462 -572 -32 106 -465zm102 -507l560 35 -93 462 -560 -32 93 -465zm-617 -40l560 35 -93 465 -564 -35 97 -465zm107 -504l555 34 -93 463 -560 -33 98 -464zm608 39l555 35 -84 460 -560 -35 89 -460zm93 -509l551 35 -80 464 -555 -34 84 -465zm-608 -40l555 35 -84 467 -555 -35 84 -467zm-701 470l555 35 -94 462 -559 -32 98 -465zm102 -510l550 35 -84 465 -555 -32 89 -468zm-608 -37l555 35 -94 465 -555 -33 94 -467zm2135 1675l564 40 -98 462 -559 -40 93 -462zm613 42l563 45 -84 460 -573 -40 94 -465zm97 -504l560 45 -85 462 -564 -45 89 -462zm-612 -45l559 40 -84 462 -564 -40 89 -462zm1132 599l563 42 -84 460 -568 -42 89 -460zm612 45l564 45 -80 457 -568 -40 84 -462zm89 -502l555 42 -71 460 -564 -40 80 -462zm-608 -47l555 44 -80 458 -555 -43 80 -459zm84 -505l555 47 -75 458 -555 -45 75 -460zm608 52l555 43 -75 454 -555 -42 75 -455zm76 -504l550 44 -62 460 -555 -44 67 -460zm-604 -52l551 47 -67 462 -555 -45 71 -464zm-688 454l559 48 -80 459 -563 -47 84 -460zm84 -504l555 47 -71 462 -559 -47 75 -462zm-603 -47l550 44 -71 460 -555 -40 76 -464zm-524 2527l572 38 -119 459 -573 -34 120 -463zm-2500 -136l573 29 -133 465 -577 -32 137 -462zm-297 1019l577 27 -155 465 -586 -30 164 -462zm635 29l577 30 -147 465 -590 -27 160 -468zm146 -507l577 30 -133 465 -577 -32 133 -463zm-630 -34l573 29 -134 465 -577 -27 138 -467zm1114 576l577 27 -142 465 -581 -30 146 -462zm635 32l582 30 -142 460 -582 -27 142 -463zm142 -507l573 30 -120 463 -582 -30 129 -463zm-635 -34l577 29 -124 465 -581 -30 128 -464zm142 -507l569 32 -125 460 -572 -30 128 -462zm626 34l573 30 -124 463 -573 -28 124 -465zm138 -502l573 30 -125 465 -572 -35 124 -460zm-622 -37l569 32 -129 463 -568 -30 128 -465zm-768 470l573 30 -129 464 -577 -29 133 -465zm151 -505l564 30 -129 465 -568 -32 133 -463zm-626 -37l569 32 -134 465 -572 -30 137 -467zm2087 1658l577 35 -138 462 -581 -37 142 -460zm630 37l582 40 -129 460 -590 -38 137 -462zm129 -504l582 42 -116 460 -581 -40 115 -462zm-626 -40l573 37 -116 460 -577 -35 120 -462zm1132 589l577 37 -129 457 -577 -37 129 -457zm630 40l582 37 -129 455 -581 -35 128 -457zm125 -500l572 37 -111 458 -572 -38 111 -457zm-631 -45l577 38 -111 459 -577 -37 111 -460zm125 -502l572 40 -111 460 -577 -42 116 -458zm621 45l573 37 -107 458 -572 -38 106 -457zm124 -500l564 40 -102 457 -573 -39 111 -458zm-621 -47l568 42 -111 460 -568 -42 111 -460zm-750 457l572 40 -111 460 -581 -40 120 -460zm128 -502l573 43 -115 459 -573 -42 115 -460zm-617 -42l564 37 -115 463 -573 -38 124 -462zm-4963 3378l595 22 -182 465 -599 -17 186 -470zm653 22l599 15 -177 467 -604 -15 182 -467zm200 -512l590 20 -173 462 -599 -15 182 -467zm-653 -20l595 20 -182 467 -595 -22 182 -465zm187 -512l590 20 -169 467 -595 -19 174 -468zm648 25l586 15 -165 467 -590 -20 169 -462zm177 -509l586 20 -160 459 -586 -15 160 -464zm-639 -23l586 20 -164 465 -595 -22 173 -463zm-826 490l586 17 -173 468 -590 -20 177 -465zm187 -510l581 18 -168 465 -586 -18 173 -465zm4310 691l591 35 -147 460 -590 -32 146 -463zm-2570 -121l590 27 -164 465 -590 -28 164 -464zm-369 1019l595 27 -173 465 -599 -25 177 -467zm653 29l595 25 -169 465 -595 -25 169 -465zm186 -509l591 27 -164 462 -595 -24 168 -465zm-648 -30l591 27 -169 465 -595 -27 173 -465zm1110 567l595 27 -160 462 -599 -25 164 -464zm657 30l595 22 -160 465 -599 -25 164 -462zm178 -510l590 30 -155 462 -595 -27 160 -465zm-653 -27l595 25 -164 464 -595 -25 164 -464zm173 -510l586 30 -151 460 -590 -25 155 -465zm644 33l590 27 -151 462 -590 -25 151 -464zm169 -503l581 28 -146 457 -591 -27 156 -458zm-648 -32l590 28 -155 459 -586 -27 151 -460zm-804 472l586 28 -155 464 -591 -27 160 -465zm169 -507l586 30 -156 460 -586 -25 156 -465zm-640 -29l582 27 -155 465 -586 -30 159 -462zm2060 1642l595 28 -155 462 -600 -30 160 -460zm648 33l600 34 -151 458 -604 -33 155 -459zm169 -507l595 37 -147 460 -599 -35 151 -462zm-644 -33l591 30 -151 462 -595 -29 155 -463zm1128 577l595 32 -147 458 -599 -33 151 -457zm648 35l595 32 -142 455 -599 -30 146 -457zm160 -502l595 32 -142 460 -595 -35 142 -457zm-644 -38l591 33 -142 460 -595 -33 146 -460zm156 -502l586 35 -138 460 -590 -37 142 -458zm639 38l586 34 -133 458 -591 -33 138 -459zm146 -497l582 34 -129 455 -586 -35 133 -454zm-634 -43l581 40 -133 455 -586 -37 138 -458zm-795 463l590 34 -142 460 -595 -32 147 -462zm155 -502l591 37 -142 457 -586 -37 137 -457zm-634 -38l581 33 -142 459 -586 -32 147 -460zm-4591 -1744l569 19 -147 468 -577 -23 155 -464zm302 1043l582 18 -165 470 -586 -20 169 -468zm164 -509l578 17 -143 470 -586 -22 151 -465zm-630 -25l573 20 -147 470 -581 -20 155 -470zm1101 554l577 23 -160 464 -581 -19 164 -468zm635 25l581 18 -159 467 -582 -20 160 -465zm155 -509l582 20 -138 464 -581 -20 137 -464zm-630 -25l577 22 -142 465 -577 -20 142 -467zm155 -510l573 23 -142 467 -573 -25 142 -465zm635 23l568 20 -137 467 -578 -20 147 -467zm155 -507l569 20 -138 467 -577 -23 146 -464zm-626 -23l569 23 -142 464 -573 -22 146 -465zm-785 485l572 17 -146 468 -577 -18 151 -467zm164 -510l568 20 -146 468 -569 -18 147 -470zm-626 -22l573 20 -156 467 -568 -20 151 -467zm-337 -1039l559 13 -124 469 -569 -12 134 -470zm133 -509l555 10 -120 467 -560 -13 125 -464zm124 -515l555 15 -111 467 -555 -10 111 -472zm218 1551l568 20 -124 470 -569 -23 125 -467zm621 22l564 23 -116 467 -568 -22 120 -468zm129 -514l559 25 -111 467 -564 -20 116 -472zm-617 -22l564 22 -116 467 -568 -20 120 -469zm1105 561l568 23 -115 467 -573 -22 120 -468zm622 25l563 20 -111 470 -568 -23 116 -467zm120 -512l559 23 -107 467 -559 -23 107 -467zm-618 -25l564 23 -111 467 -568 -22 115 -468zm125 -509l555 22 -107 465 -559 -22 111 -465zm608 25l564 25 -111 462 -555 -20 102 -467zm111 -512l555 25 -93 467 -560 -23 98 -469zm-608 -28l555 25 -98 470 -555 -25 98 -470zm-719 490l559 22 -115 465 -560 -22 116 -465zm115 -512l555 22 -102 468 -560 -23 107 -467zm-604 -25l551 23 -107 467 -559 -23 115 -467zm12031 -1506l532 75 40 452 -532 -72 -40 -455zm581 82l528 75 45 449 -533 -72 -40 -452zm-49 -495l524 75 49 455 -528 -75 -45 -455zm626 575l533 74 49 450 -537 -72 -45 -452zm586 82l529 74 48 448 -528 -75 -49 -447zm-57 -492l523 77 54 447 -524 -72 -53 -452zm-582 -80l528 72 54 452 -533 -74 -49 -450zm1216 654l529 74 57 448 -537 -75 -49 -447zm582 82l528 77 58 442 -528 -74 -58 -445zm-67 -487l524 79 67 442 -528 -77 -63 -444zm-577 -85l529 77 57 447 -532 -74 -54 -450zm1221 656l533 75 62 445 -537 -77 -58 -443zm586 82l533 75 66 442 -537 -74 -62 -443zm-75 -484l528 77 71 442 -533 -75 -66 -444zm-582 -83l528 75 71 445 -532 -75 -67 -445zm-71 -487l524 77 71 445 -528 -79 -67 -443zm573 85l523 77 76 442 -528 -77 -71 -442zm-6215 1103l532 62 -13 455 -537 -59 18 -458zm-2358 -256l538 58 -31 457 -542 -52 35 -463zm-75 1007l546 55 -40 459 -546 -52 40 -462zm595 60l546 54 -36 460 -550 -52 40 -462zm35 -500l538 57 -27 455 -542 -55 31 -457zm-595 -60l547 53 -32 457 -546 -52 31 -458zm1159 622l546 54 -26 458 -551 -52 31 -460zm595 59l546 60 -27 452 -546 -54 27 -458zm27 -497l541 60 -18 452 -546 -57 23 -455zm-595 -62l546 57 -22 458 -551 -60 27 -455zm35 -502l533 60 -22 457 -542 -57 31 -460zm582 62l541 62 -17 455 -542 -59 18 -458zm9 -502l537 62 -5 458 -537 -60 5 -460zm-577 -62l528 57 -9 460 -533 -57 14 -460zm-609 438l542 59 -31 460 -537 -57 26 -462zm18 -505l537 60 -13 459 -537 -57 13 -462zm-586 -65l537 58 -13 462 -542 -57 18 -463zm2295 1760l546 60 -17 454 -555 -57 26 -457zm595 65l551 62 -18 455 -551 -63 18 -454zm18 -495l546 65 -13 449 -546 -62 13 -452zm-591 -67l542 60 -13 454 -551 -59 22 -455zm1177 631l541 62 -13 453 -550 -62 22 -453zm590 67l551 65 -9 447 -551 -62 9 -450zm9 -492l546 65 -4 447 -546 -62 4 -450zm-586 -69l537 64 -9 450 -541 -65 13 -449zm9 -495l533 65 -5 452 -537 -65 9 -452zm586 70l537 67 0 450 -546 -65 9 -452zm-4 -497l532 69 9 452 -541 -67 0 -454zm-586 -73l537 70 0 452 -533 -67 -4 -455zm-591 428l542 65 -9 454 -546 -64 13 -455zm5 -502l532 69 5 455 -542 -67 5 -457zm-582 -67l533 62 -5 457 -532 -62 4 -457zm4697 1091l541 72 18 445 -541 -72 -18 -445zm-2349 -308l538 72 0 447 -538 -69 0 -450zm-4 984l542 67 -5 447 -546 -67 9 -447zm595 72l546 67 0 447 -555 -67 9 -447zm-5 -490l547 72 4 443 -546 -67 -5 -448zm-586 -74l538 69 0 448 -542 -67 4 -450zm1186 639l541 67 5 442 -546 -65 0 -444zm599 72l546 67 5 442 -551 -65 0 -444zm-13 -485l546 72 13 440 -550 -70 -9 -442zm-591 -75l537 70 9 442 -541 -67 -5 -445zm-9 -489l542 69 4 448 -537 -70 -9 -447zm591 77l537 72 18 445 -546 -72 -9 -445zm-18 -490l528 75 27 445 -537 -72 -18 -448zm-590 -79l537 74 18 445 -538 -69 -17 -450zm-569 415l538 69 9 448 -547 -70 0 -447zm-13 -492l533 72 18 447 -542 -70 -9 -449zm-581 -80l532 72 9 453 -533 -73 -8 -452zm2388 1772l546 67 13 445 -550 -69 -9 -443zm604 75l541 69 14 440 -546 -67 -9 -442zm-23 -480l542 70 22 440 -546 -73 -18 -437zm-594 -77l541 70 18 439 -546 -69 -13 -440zm1207 634l551 69 17 438 -555 -67 -13 -440zm604 74l546 67 22 438 -550 -67 -18 -438zm-27 -477l542 70 26 435 -546 -67 -22 -438zm-599 -77l546 72 22 435 -546 -67 -22 -440zm-27 -482l542 72 26 440 -541 -70 -27 -442zm595 79l542 73 31 434 -546 -69 -27 -438zm-40 -479l537 72 40 437 -541 -72 -36 -437zm-586 -82l537 74 31 440 -537 -72 -31 -442zm-550 402l532 72 27 443 -542 -72 -17 -443zm-31 -484l532 74 31 440 -537 -72 -26 -442zm-591 -82l537 74 27 445 -537 -74 -27 -445zm-5851 -1243l529 60 17 462 -532 -62 -14 -460zm577 65l533 64 22 458 -537 -60 -18 -462zm582 69l533 67 22 458 -533 -65 -22 -460zm581 72l529 70 31 455 -537 -67 -23 -458zm582 77l533 70 31 455 -533 -70 -31 -455zm582 75l528 67 35 455 -532 -70 -31 -452zm2992 3308l555 65 -23 437 -555 -65 23 -437zm-2420 -281l551 65 -36 442 -555 -62 40 -445zm-93 977l564 60 -45 444 -563 -57 44 -447zm617 64l564 63 -40 442 -568 -60 44 -445zm40 -484l559 62 -31 442 -564 -59 36 -445zm-604 -70l555 65 -40 442 -564 -59 49 -448zm1177 622l559 59 -35 443 -564 -60 40 -442zm612 64l564 62 -31 440 -564 -59 31 -443zm36 -482l559 62 -26 443 -564 -65 31 -440zm-608 -67l555 60 -32 442 -559 -60 36 -442zm31 -485l550 65 -26 440 -555 -62 31 -443zm608 70l555 65 -27 437 -559 -62 31 -440zm22 -485l555 67 -18 443 -555 -65 18 -445zm-599 -69l546 64 -22 443 -551 -65 27 -442zm-635 417l555 62 -31 443 -560 -62 36 -443zm31 -489l555 67 -27 442 -555 -62 27 -447zm-595 -72l546 67 -26 444 -555 -62 35 -449zm2326 1732l560 59 -27 440 -564 -62 31 -437zm613 64l564 63 -22 437 -569 -60 27 -440zm27 -477l559 62 -18 438 -564 -62 23 -438zm-613 -69l559 62 -26 440 -555 -62 22 -440zm1203 616l559 62 -17 435 -569 -62 27 -435zm617 67l564 62 -18 433 -564 -60 18 -435zm13 -475l560 63 -9 434 -564 -62 13 -435zm-612 -69l559 62 -13 437 -564 -64 18 -435zm18 -477l554 67 -13 432 -559 -64 18 -435zm608 72l555 64 -9 433 -560 -62 14 -435zm9 -475l550 65 0 435 -555 -65 5 -435zm-604 -75l550 68 -4 437 -555 -67 9 -438zm-622 408l560 65 -18 432 -559 -62 17 -435zm23 -480l546 67 -9 435 -551 -64 14 -438zm-604 -74l550 67 -13 440 -555 -67 18 -440zm-178 2398l568 60 -53 437 -572 -59 57 -438zm-2490 -248l572 57 -71 445 -577 -57 76 -445zm-164 974l581 52 -84 442 -582 -49 85 -445zm634 60l573 52 -80 440 -577 -53 84 -439zm76 -488l573 55 -67 442 -573 -52 67 -445zm-626 -59l577 57 -71 442 -577 -54 71 -445zm1176 604l577 52 -71 437 -586 -49 80 -440zm635 57l582 55 -71 437 -586 -52 75 -440zm71 -480l577 55 -62 437 -577 -52 62 -440zm-630 -62l572 55 -62 442 -577 -55 67 -442zm71 -482l568 55 -62 442 -573 -57 67 -440zm626 62l568 57 -58 438 -572 -55 62 -440zm71 -477l564 57 -58 437 -568 -57 62 -437zm-622 -67l564 62 -62 440 -568 -60 66 -442zm-697 420l569 57 -67 440 -568 -55 66 -442zm80 -482l568 57 -71 442 -568 -57 71 -442zm-617 -65l564 60 -67 442 -572 -57 75 -445zm2278 1693l577 54 -67 438 -577 -55 67 -437zm634 59l577 55 -62 432 -581 -52 66 -435zm62 -477l573 57 -49 433 -581 -55 57 -435zm-630 -62l573 57 -54 437 -577 -57 58 -437zm1199 599l577 57 -58 430 -581 -55 62 -432zm635 59l581 53 -53 432 -586 -52 58 -433zm53 -472l577 55 -45 430 -577 -52 45 -433zm-631 -62l573 55 -44 435 -577 -57 48 -433zm54 -475l568 58 -44 435 -573 -60 49 -433zm626 65l572 57 -44 430 -573 -55 45 -432zm53 -470l568 57 -44 430 -569 -57 45 -430zm-622 -67l564 60 -44 432 -573 -59 53 -433zm-683 408l572 59 -48 433 -578 -55 54 -437zm62 -475l568 60 -49 435 -572 -57 53 -438zm-617 -67l564 62 -54 438 -568 -63 58 -437zm-5492 1971l586 45 -111 449 -590 -42 115 -452zm-2565 -182l590 40 -133 458 -591 -43 134 -455zm-298 1002l595 35 -146 457 -595 -35 146 -457zm648 40l591 40 -138 454 -599 -39 146 -455zm151 -497l586 37 -133 455 -590 -37 137 -455zm-643 -45l590 40 -138 455 -595 -38 143 -457zm1140 584l595 37 -133 453 -595 -35 133 -455zm649 40l594 42 -124 450 -599 -40 129 -452zm142 -495l590 42 -124 450 -595 -37 129 -455zm-644 -42l590 40 -128 455 -595 -40 133 -455zm142 -495l582 40 -120 452 -591 -37 129 -455zm635 43l586 44 -116 450 -590 -42 120 -452zm129 -492l581 44 -111 448 -586 -43 116 -449zm-631 -48l577 45 -115 447 -586 -39 124 -453zm-777 450l586 42 -133 453 -586 -40 133 -455zm133 -494l586 42 -124 452 -586 -45 124 -449zm-634 -48l581 43 -124 452 -586 -40 129 -455zm2157 1666l595 39 -124 450 -595 -37 124 -452zm653 47l590 42 -120 447 -599 -42 129 -447zm133 -492l586 42 -116 447 -590 -39 120 -450zm-648 -50l590 45 -120 450 -595 -43 125 -452zm1163 587l595 44 -116 445 -599 -42 120 -447zm648 47l595 42 -111 445 -599 -40 115 -447zm124 -487l591 44 -107 443 -595 -43 111 -444zm-643 -48l590 43 -111 447 -595 -45 116 -445zm119 -492l586 47 -106 445 -591 -44 111 -448zm640 52l586 45 -102 445 -591 -47 107 -443zm111 -487l581 48 -97 442 -586 -45 102 -445zm-631 -49l577 47 -102 445 -586 -50 111 -442zm-763 432l586 50 -111 447 -586 -47 111 -450zm120 -487l586 47 -107 445 -586 -45 107 -447zm-635 -52l581 47 -106 447 -586 -44 111 -450zm5003 909l581 53 -80 437 -586 -52 85 -438zm-2562 -216l586 50 -102 442 -586 -47 102 -445zm-230 972l590 47 -107 443 -594 -48 111 -442zm643 50l595 44 -102 443 -599 -45 106 -442zm116 -485l590 50 -98 440 -594 -48 102 -442zm-640 -50l586 48 -102 442 -590 -47 106 -443zm1172 584l600 48 -102 439 -600 -47 102 -440zm657 53l595 44 -102 438 -590 -43 97 -439zm107 -483l590 50 -93 438 -595 -48 98 -440zm-653 -49l595 47 -97 437 -595 -44 97 -440zm107 -485l586 52 -93 438 -591 -48 98 -442zm644 57l586 47 -85 438 -590 -47 89 -438zm93 -479l581 54 -80 433 -586 -50 85 -437zm-639 -55l581 50 -84 437 -586 -50 89 -437zm-737 425l586 50 -98 439 -590 -49 102 -440zm106 -482l577 52 -89 437 -586 -49 98 -440zm-639 -55l586 50 -98 440 -586 -50 98 -440zm2255 1658l595 44 -89 438 -599 -47 93 -435zm653 49l594 50 -84 433 -599 -48 89 -435zm97 -477l591 50 -85 435 -594 -50 88 -435zm-643 -52l586 47 -89 438 -595 -48 98 -437zm1194 582l595 47 -80 432 -600 -44 85 -435zm652 49l595 48 -75 430 -600 -45 80 -433zm89 -469l591 47 -76 430 -595 -47 80 -430zm-648 -55l590 52 -80 428 -594 -45 84 -435zm89 -472l586 49 -76 433 -590 -50 80 -432zm643 54l586 50 -71 428 -590 -45 75 -433zm76 -469l586 52 -67 427 -590 -52 71 -427zm-639 -57l581 52 -71 430 -586 -53 76 -429zm-724 415l590 52 -79 432 -591 -49 80 -435zm89 -475l581 55 -75 432 -586 -55 80 -432zm-639 -57l581 52 -80 435 -581 -52 80 -435zm-4773 -1914l564 52 -84 450 -573 -52 93 -450zm-2499 -209l573 47 -107 458 -568 -47 102 -458zm-235 1002l581 42 -120 457 -581 -44 120 -455zm635 47l577 45 -111 455 -586 -45 120 -455zm111 -497l577 45 -98 455 -581 -48 102 -452zm-622 -50l573 43 -102 457 -582 -42 111 -458zm1145 597l578 42 -107 455 -586 -42 115 -455zm631 47l577 47 -107 448 -577 -43 107 -452zm106 -495l573 48 -93 449 -573 -44 93 -453zm-626 -49l573 44 -93 453 -577 -43 97 -454zm103 -497l572 47 -93 452 -577 -47 98 -452zm621 49l573 50 -89 450 -577 -45 93 -455zm107 -492l568 52 -89 448 -573 -47 94 -453zm-617 -52l563 47 -93 455 -568 -47 98 -455zm-733 442l564 48 -98 454 -573 -47 107 -455zm111 -497l564 50 -98 455 -568 -50 102 -455zm-617 -52l568 47 -102 458 -573 -48 107 -457zm2175 1693l582 47 -102 450 -582 -45 102 -452zm635 52l577 50 -98 449 -581 -49 102 -450zm93 -492l577 52 -84 447 -577 -47 84 -452zm-621 -55l572 50 -88 450 -577 -48 93 -452zm1163 602l572 49 -88 448 -582 -48 98 -449zm626 52l581 52 -88 445 -582 -50 89 -447zm89 -485l572 50 -71 445 -581 -50 80 -445zm-622 -57l573 50 -80 449 -577 -52 84 -447zm84 -492l573 57 -80 445 -573 -52 80 -450zm626 59l564 53 -71 445 -577 -50 84 -448zm85 -487l563 55 -75 445 -564 -52 76 -448zm-617 -57l568 55 -80 445 -568 -52 80 -448zm-720 428l573 52 -84 450 -573 -52 84 -450zm98 -490l564 55 -80 447 -573 -52 89 -450zm-617 -55l564 50 -84 450 -569 -50 89 -450zm-2233 -1719l555 52 -67 455 -559 -50 71 -457zm-160 1004l564 47 -75 455 -564 -45 75 -457zm617 52l564 49 -75 458 -564 -50 75 -457zm76 -500l559 52 -66 458 -560 -52 67 -458zm-608 -57l559 52 -71 455 -564 -47 76 -460zm1149 611l560 53 -67 452 -568 -47 75 -458zm613 55l559 52 -62 453 -568 -53 71 -452zm67 -499l559 57 -58 450 -564 -50 63 -457zm-609 -53l555 50 -57 455 -560 -47 62 -458zm71 -497l555 53 -62 454 -555 -54 62 -453zm604 57l555 55 -58 450 -559 -52 62 -453zm62 -499l546 57 -48 452 -551 -54 53 -455zm-603 -57l550 54 -49 455 -555 -52 54 -457zm-671 442l555 52 -66 453 -560 -50 71 -455zm67 -502l550 55 -57 457 -555 -52 62 -460zm-599 -57l546 52 -58 455 -551 -50 63 -457zm2228 1722l564 55 -67 450 -559 -52 62 -453zm613 60l559 55 -53 452 -568 -57 62 -450zm62 -495l555 58 -54 449 -554 -54 53 -453zm-613 -59l560 54 -54 453 -563 -57 57 -450zm1168 614l559 57 -49 450 -568 -55 58 -452zm612 62l560 57 -49 445 -559 -55 48 -447zm49 -490l560 57 -45 448 -559 -58 44 -447zm-608 -62l559 57 -44 450 -564 -60 49 -447zm53 -492l555 62 -44 445 -560 -57 49 -450zm604 64l555 60 -40 445 -559 -57 44 -448zm40 -492l555 63 -36 447 -555 -60 36 -450zm-599 -64l550 62 -35 447 -555 -59 40 -450zm-653 427l551 60 -45 450 -555 -60 49 -450zm53 -494l551 62 -45 450 -550 -60 44 -452zm-603 -62l550 57 -44 452 -555 -60 49 -449zm9642 1603l555 62 13 425 -559 -65 -9 -422zm2646 -4216l514 70 160 430 -519 -70 -155 -430zm563 77l515 75 165 430 -520 -75 -160 -430zm564 83l524 64 169 428 -524 -65 -169 -427zm568 72l520 67 173 425 -524 -65 -169 -427zm569 74l515 65 177 425 -519 -65 -173 -425zm563 72l515 62 182 425 -519 -62 -178 -425zm-1380 716l528 62 129 423 -529 -62 -128 -423zm-2291 -313l519 72 116 430 -528 -72 -107 -430zm231 937l533 69 102 425 -537 -67 -98 -427zm581 74l533 70 107 422 -537 -64 -103 -428zm-119 -464l528 69 115 428 -532 -70 -111 -427zm-578 -77l529 72 111 427 -533 -69 -107 -430zm1283 618l533 68 107 422 -537 -65 -103 -425zm582 75l533 67 111 420 -537 -65 -107 -422zm-129 -462l529 67 119 422 -532 -67 -116 -422zm-581 -75l532 67 120 425 -532 -67 -120 -425zm-129 -470l524 72 129 425 -533 -69 -120 -428zm573 80l528 67 124 425 -528 -70 -124 -422zm-134 -467l520 69 129 428 -524 -72 -125 -425zm-568 -80l520 72 128 428 -523 -70 -125 -430zm-444 390l524 70 120 425 -528 -67 -116 -428zm-128 -469l523 69 120 430 -524 -72 -119 -427zm-569 -82l524 74 116 430 -520 -72 -120 -432zm2691 1710l532 57 116 422 -533 -59 -115 -420zm581 67l533 59 120 420 -538 -59 -115 -420zm-138 -460l529 62 133 420 -533 -62 -129 -420zm-577 -70l529 62 128 423 -532 -60 -125 -425zm1301 594l533 62 120 420 -533 -62 -120 -420zm582 70l532 60 125 415 -538 -58 -119 -417zm-147 -457l528 59 138 420 -533 -59 -133 -420zm-577 -68l528 60 133 420 -532 -60 -129 -420zm-146 -462l523 62 138 423 -528 -65 -133 -420zm572 70l524 62 142 420 -528 -62 -138 -420zm-151 -460l520 62 146 423 -524 -65 -142 -420zm-568 -72l524 65 137 422 -523 -65 -138 -422zm-431 393l529 64 133 420 -528 -62 -134 -422zm-137 -465l519 64 138 423 -524 -62 -133 -425zm-573 -72l524 67 133 422 -524 -64 -133 -425zm-4106 1715l537 69 53 430 -546 -72 -44 -427zm-2357 -318l537 72 35 437 -541 -72 -31 -437zm62 954l550 69 22 435 -550 -69 -22 -435zm603 74l546 70 32 432 -551 -67 -27 -435zm-35 -472l542 70 35 430 -546 -67 -31 -433zm-599 -79l546 72 31 432 -546 -69 -31 -435zm1229 626l551 72 31 428 -551 -68 -31 -432zm604 80l542 69 35 428 -546 -70 -31 -427zm-44 -470l537 69 44 428 -541 -70 -40 -427zm-600 -82l546 72 40 427 -546 -67 -40 -432zm-40 -475l538 75 44 430 -542 -70 -40 -435zm591 82l537 72 44 430 -537 -67 -44 -435zm-53 -472l532 74 49 430 -533 -72 -48 -432zm-591 -82l537 74 49 430 -537 -72 -49 -432zm-537 395l542 72 35 433 -542 -70 -35 -435zm-44 -477l532 74 45 435 -537 -74 -40 -435zm-591 -80l537 75 40 435 -537 -72 -40 -438zm2499 1735l551 67 40 425 -551 -64 -40 -428zm604 72l546 70 45 425 -551 -67 -40 -428zm-53 -465l542 70 53 425 -546 -70 -49 -425zm-599 -74l546 67 48 425 -550 -65 -44 -427zm1247 614l551 67 48 422 -550 -64 -49 -425zm599 72l546 67 54 422 -551 -64 -49 -425zm-62 -462l542 69 62 420 -546 -67 -58 -422zm-595 -75l546 70 58 422 -550 -67 -54 -425zm-57 -467l541 69 58 428 -546 -70 -53 -427zm590 77l537 69 62 425 -541 -69 -58 -425zm-71 -465l537 72 62 423 -537 -70 -62 -425zm-586 -82l537 72 62 428 -541 -70 -58 -430zm-524 390l542 75 53 427 -542 -72 -53 -430zm-62 -467l537 72 58 428 -537 -73 -58 -427zm-586 -80l533 72 58 430 -542 -72 -49 -430zm4781 1067l542 59 84 415 -546 -57 -80 -417zm-2362 -286l542 67 67 420 -546 -65 -63 -422zm134 922l550 67 53 418 -550 -63 -53 -422zm599 72l546 60 62 420 -550 -60 -58 -420zm-71 -460l546 62 67 420 -546 -62 -67 -420zm-595 -72l546 65 62 420 -546 -65 -62 -420zm1265 602l551 59 62 418 -551 -60 -62 -417zm600 64l546 62 71 415 -551 -59 -66 -418zm-80 -455l546 62 75 416 -546 -60 -75 -418zm-591 -69l542 62 71 417 -546 -59 -67 -420zm-80 -458l542 65 75 415 -546 -62 -71 -418zm591 70l537 62 80 418 -542 -62 -75 -418zm-89 -462l537 67 80 417 -537 -64 -80 -420zm-582 -70l533 65 80 420 -542 -65 -71 -420zm-510 390l537 63 71 420 -542 -63 -66 -420zm-80 -464l537 64 71 423 -537 -65 -71 -422zm-586 -72l537 64 71 423 -541 -65 -67 -422zm2606 1657l550 57 71 413 -550 -55 -71 -415zm599 62l546 55 76 413 -551 -55 -71 -413zm-89 -449l546 57 85 410 -551 -57 -80 -410zm-590 -65l542 55 79 415 -546 -55 -75 -415zm1278 577l551 57 80 410 -551 -52 -80 -415zm600 62l546 54 84 410 -550 -52 -80 -412zm-98 -450l546 55 93 410 -550 -55 -89 -410zm-590 -62l541 57 89 407 -546 -54 -84 -410zm-98 -458l542 63 93 412 -546 -57 -89 -418zm590 67l542 58 93 412 -541 -54 -94 -416zm-102 -452l537 57 94 413 -537 -57 -94 -413zm-586 -67l538 60 93 412 -542 -57 -89 -415zm-492 390l537 57 89 418 -542 -57 -84 -418zm-94 -457l538 60 84 415 -537 -58 -85 -417zm-586 -65l538 60 84 415 -542 -57 -80 -418zm-4976 -2035l524 77 97 437 -528 -77 -93 -437zm-2291 -346l524 80 80 442 -528 -79 -76 -443zm165 967l528 75 71 440 -533 -75 -66 -440zm581 82l533 75 75 440 -537 -75 -71 -440zm-84 -479l528 74 80 442 -528 -77 -80 -439zm-582 -85l528 77 80 442 -532 -77 -76 -442zm1248 646l532 77 76 435 -533 -74 -75 -438zm581 85l533 77 80 435 -533 -75 -80 -437zm-93 -477l528 79 89 435 -533 -75 -84 -439zm-577 -85l524 77 88 435 -532 -72 -80 -440zm-93 -482l519 79 93 438 -528 -77 -84 -440zm572 89l524 77 93 438 -528 -77 -89 -438zm-1141 -176l524 82 85 437 -529 -74 -80 -445zm1909 1213l533 74 89 430 -537 -72 -85 -432zm586 82l533 72 89 432 -537 -74 -85 -430zm-102 -475l528 77 98 433 -533 -78 -93 -432zm-581 -82l528 77 98 433 -533 -75 -93 -435zm1265 639l533 72 93 427 -537 -72 -89 -427zm581 79l533 72 93 428 -532 -70 -94 -430zm-111 -469l529 74 106 430 -533 -74 -102 -430zm-577 -82l529 74 102 433 -533 -75 -98 -432zm-111 -475l524 77 107 432 -529 -77 -102 -432zm573 84l524 77 111 430 -528 -74 -107 -433zm-115 -472l515 77 119 433 -523 -77 -111 -433zm-569 -87l520 77 111 435 -524 -77 -107 -435zm-461 390l528 77 98 435 -529 -77 -97 -435zm-107 -477l519 82 107 433 -524 -77 -102 -438zm-573 -84l520 77 106 437 -523 -77 -103 -437zm5465 4789l555 52 40 408 -559 -52 -36 -408zm-2433 -261l555 60 27 415 -559 -58 -23 -417zm49 915l564 57 22 417 -568 -54 -18 -420zm617 62l564 54 22 415 -568 -52 -18 -417zm-31 -458l560 58 31 415 -564 -55 -27 -418zm-608 -62l559 57 27 418 -564 -57 -22 -418zm1256 582l564 55 27 415 -568 -55 -23 -415zm613 59l564 58 31 410 -564 -52 -31 -416zm-35 -452l559 57 40 413 -564 -55 -35 -415zm-609 -60l560 55 31 413 -560 -55 -31 -413zm-35 -454l555 57 35 412 -559 -54 -31 -415zm604 62l554 59 40 411 -559 -58 -35 -412zm-40 -453l550 60 44 413 -554 -57 -40 -416zm-604 -64l555 60 40 415 -555 -60 -40 -415zm-573 388l560 59 26 413 -559 -57 -27 -415zm-31 -455l551 59 35 418 -555 -60 -31 -417zm-604 -70l555 65 31 417 -555 -62 -31 -420zm2549 1621l563 49 36 410 -568 -49 -31 -410zm612 54l564 52 40 408 -568 -50 -36 -410zm-44 -447l559 50 44 410 -559 -52 -44 -408zm-613 -60l559 50 45 413 -564 -50 -40 -413zm1274 564l564 50 44 408 -568 -50 -40 -408zm617 55l564 47 44 408 -563 -47 -45 -408zm-57 -447l559 49 58 408 -564 -50 -53 -407zm-609 -57l560 52 53 407 -564 -49 -49 -410zm-53 -445l559 52 49 405 -559 -50 -49 -407zm608 57l555 50 53 405 -559 -50 -49 -405zm-57 -447l550 52 58 407 -555 -52 -53 -407zm-604 -60l550 55 58 407 -555 -52 -53 -410zm-555 390l555 52 44 410 -555 -52 -44 -410zm-49 -450l551 55 53 410 -555 -52 -49 -413zm-604 -62l555 57 45 410 -555 -52 -45 -415zm169 2252l573 45 9 410 -578 -48 -4 -407zm-2499 -231l568 52 -4 415 -578 -52 14 -415zm-27 907l582 52 -14 413 -586 -48 18 -417zm635 57l577 47 -9 415 -586 -49 18 -413zm9 -452l572 49 0 413 -577 -50 5 -412zm-626 -57l573 52 -5 412 -581 -47 13 -417zm1252 564l577 47 -5 410 -581 -45 9 -412zm630 52l582 52 -5 408 -581 -50 4 -410zm0 -447l577 49 5 410 -577 -52 -5 -407zm-626 -58l577 53 0 410 -577 -48 0 -415zm0 -450l573 50 0 413 -573 -52 0 -411zm626 55l568 55 9 407 -577 -49 0 -413zm0 -447l568 54 5 411 -573 -55 0 -410zm-617 -57l564 52 4 410 -572 -50 4 -412zm-635 390l573 52 -5 413 -572 -50 4 -415zm9 -452l568 54 0 413 -572 -50 4 -417zm-617 -58l568 53 -9 415 -568 -53 9 -415zm2495 1579l581 44 0 405 -581 -39 0 -410zm635 49l577 45 9 405 -586 -42 0 -408zm-9 -447l577 47 13 408 -581 -48 -9 -407zm-626 -52l573 49 8 406 -577 -43 -4 -412zm1270 549l577 42 13 405 -582 -42 -8 -405zm630 47l586 45 13 403 -586 -40 -13 -408zm-13 -442l572 45 22 405 -581 -45 -13 -405zm-631 -52l577 49 18 403 -581 -45 -14 -407zm-13 -443l568 47 18 406 -573 -48 -13 -405zm621 52l573 45 18 403 -573 -42 -18 -406zm-17 -440l568 45 22 405 -573 -47 -17 -403zm-617 -57l568 53 18 402 -573 -47 -13 -408zm-617 391l572 49 14 405 -573 -44 -13 -410zm-5 -443l568 47 9 408 -568 -45 -9 -410zm-621 -55l568 50 9 408 -569 -47 -8 -411zm-5150 1815l586 47 -49 422 -590 -47 53 -422zm-2570 -224l586 50 -67 427 -590 -49 71 -428zm-160 940l595 44 -76 430 -599 -44 80 -430zm652 49l595 50 -71 425 -599 -47 75 -428zm80 -467l591 50 -67 425 -595 -45 71 -430zm-648 -55l591 53 -71 427 -595 -50 75 -430zm1217 574l594 48 -66 425 -599 -45 71 -428zm652 55l595 47 -62 423 -599 -47 66 -423zm71 -465l591 50 -58 423 -595 -48 62 -425zm-648 -54l590 49 -62 425 -595 -49 67 -425zm71 -465l586 50 -62 425 -590 -53 66 -422zm644 55l586 54 -58 420 -590 -49 62 -425zm58 -460l585 52 -53 420 -586 -52 54 -420zm-640 -60l582 52 -53 423 -586 -52 57 -423zm-706 408l586 52 -62 425 -590 -50 66 -427zm71 -465l582 52 -58 425 -586 -52 62 -425zm-639 -57l582 55 -62 422 -586 -50 66 -427zm2366 1613l595 47 -58 418 -594 -43 57 -422zm657 52l595 45 -53 420 -599 -47 57 -418zm58 -462l590 52 -48 415 -595 -45 53 -422zm-648 -52l590 49 -53 420 -595 -47 58 -422zm1238 564l591 47 -45 415 -599 -45 53 -417zm644 49l595 45 -44 415 -600 -42 49 -418zm53 -454l591 49 -45 410 -594 -44 48 -415zm-643 -53l590 48 -49 417 -590 -47 49 -418zm49 -457l590 47 -44 418 -591 -47 45 -418zm643 55l586 50 -40 415 -590 -50 44 -415zm40 -455l586 52 -35 413 -586 -50 35 -415zm-635 -57l586 52 -40 415 -590 -50 44 -417zm-683 400l581 52 -44 420 -586 -52 49 -420zm53 -455l577 52 -44 415 -582 -49 49 -418zm-639 -57l581 52 -49 418 -586 -50 54 -420zm5078 877l586 43 -22 407 -590 -42 26 -408zm-2570 -201l586 47 -36 413 -590 -45 40 -415zm-93 907l595 45 -40 412 -600 -42 45 -415zm648 47l595 43 -36 410 -599 -40 40 -413zm44 -452l591 45 -36 412 -595 -44 40 -413zm-643 -47l590 45 -40 412 -595 -42 45 -415zm1251 547l600 42 -36 410 -599 -42 35 -410zm653 47l595 42 -31 408 -600 -40 36 -410zm36 -448l590 43 -27 410 -595 -45 32 -408zm-649 -47l595 40 -31 410 -595 -40 31 -410zm36 -452l590 47 -31 410 -590 -45 31 -412zm644 50l586 44 -27 410 -590 -44 31 -410zm26 -445l582 47 -22 405 -586 -45 26 -407zm-639 -50l586 45 -27 407 -586 -47 27 -405zm-675 395l586 45 -31 412 -590 -44 35 -413zm36 -450l581 45 -26 410 -586 -45 31 -410zm-635 -54l581 49 -31 413 -586 -50 36 -412zm2473 1548l594 37 -26 408 -600 -40 32 -405zm648 40l595 42 -14 403 -604 -38 23 -407zm26 -443l591 40 -18 405 -595 -37 22 -408zm-643 -44l590 42 -22 403 -595 -38 27 -407zm1269 532l600 37 -14 405 -599 -37 13 -405zm653 42l599 37 -13 403 -599 -38 13 -402zm18 -440l594 37 -13 403 -595 -37 14 -403zm-649 -45l595 40 -13 403 -599 -38 17 -405zm18 -445l591 43 -9 405 -595 -43 13 -405zm644 47l590 43 -9 400 -590 -40 9 -403zm9 -439l586 42 -5 400 -590 -40 9 -402zm-639 -48l586 43 -9 402 -586 -40 9 -405zm-657 396l586 39 -14 405 -590 -37 18 -407zm17 -443l586 45 -13 402 -586 -42 13 -405zm-635 -47l582 42 -13 405 -591 -42 22 -405zm-4998 -1822l564 55 -23 422 -568 -54 27 -423zm-2504 -258l573 59 -40 430 -573 -59 40 -430zm-93 942l581 57 -48 427 -582 -54 49 -430zm639 62l577 52 -44 427 -582 -52 49 -427zm45 -470l572 57 -35 425 -577 -54 40 -428zm-635 -62l577 57 -40 428 -577 -55 40 -430zm1221 589l577 57 -40 425 -582 -55 45 -427zm634 62l582 55 -40 422 -582 -52 40 -425zm36 -465l577 57 -27 423 -581 -55 31 -425zm-631 -64l578 59 -31 425 -582 -57 35 -427zm36 -465l573 57 -31 428 -578 -60 36 -425zm626 65l573 59 -27 423 -577 -57 31 -425zm35 -463l569 62 -27 420 -568 -57 26 -425zm-621 -67l568 60 -31 427 -573 -62 36 -425zm-662 403l569 57 -31 425 -577 -55 39 -427zm45 -467l564 59 -31 425 -573 -57 40 -427zm-626 -68l568 60 -40 430 -568 -60 40 -430zm2393 1651l577 54 -27 420 -586 -52 36 -422zm635 57l577 55 -27 420 -577 -53 27 -422zm26 -460l573 57 -18 418 -577 -55 22 -420zm-626 -60l568 55 -22 420 -572 -52 26 -423zm1230 580l577 54 -22 415 -582 -49 27 -420zm630 57l582 54 -22 418 -582 -55 22 -417zm18 -455l577 55 -9 417 -581 -55 13 -417zm-626 -62l577 57 -18 417 -577 -52 18 -422zm18 -458l573 55 -14 420 -577 -57 18 -418zm626 60l568 60 -9 415 -577 -55 18 -420zm18 -455l568 62 -14 415 -568 -57 14 -420zm-622 -62l568 57 -13 418 -573 -55 18 -420zm-644 393l573 59 -22 420 -573 -57 22 -422zm27 -460l568 62 -18 420 -572 -57 22 -425zm-617 -62l559 57 -22 423 -564 -58 27 -422zm-2446 -1680l555 64 -5 428 -559 -62 9 -430zm-22 944l563 60 -8 432 -569 -62 14 -430zm621 67l564 62 -9 430 -568 -62 13 -430zm5 -472l559 62 0 433 -564 -62 5 -433zm-613 -69l559 64 -4 433 -564 -65 9 -432zm1221 608l564 63 -5 427 -568 -60 9 -430zm617 70l564 62 0 425 -564 -62 0 -425zm0 -467l555 62 9 427 -560 -62 -4 -427zm-613 -72l560 64 0 428 -564 -62 4 -430zm0 -468l555 68 0 425 -559 -65 4 -428zm608 75l551 65 4 422 -550 -64 -5 -423zm-8 -470l546 67 13 428 -551 -67 -8 -428zm-604 -74l550 67 9 427 -555 -64 -4 -430zm-604 397l555 65 0 430 -559 -67 4 -428zm0 -469l551 67 8 427 -554 -64 -5 -430zm-604 -77l551 69 0 433 -555 -67 4 -435zm2442 1692l559 60 5 422 -564 -57 0 -425zm613 65l563 62 9 422 -568 -62 -4 -422zm-9 -463l559 63 13 422 -563 -62 -9 -423zm-617 -69l559 64 13 423 -564 -60 -8 -427zm1238 599l564 62 13 418 -568 -58 -9 -422zm617 67l564 60 13 417 -563 -60 -14 -417zm-22 -462l559 64 27 418 -564 -60 -22 -422zm-608 -65l559 60 18 422 -559 -59 -18 -423zm-18 -462l555 64 18 418 -560 -62 -13 -420zm608 69l555 65 22 418 -559 -63 -18 -420zm-26 -459l550 64 31 420 -555 -64 -26 -420zm-600 -73l551 65 22 423 -555 -63 -18 -425zm-586 393l555 65 14 420 -560 -62 -9 -423zm-17 -465l550 68 22 425 -555 -70 -17 -423zm-604 -72l550 67 18 423 -555 -62 -13 -428zm12310 -3675l506 12 244 420 -510 -12 -240 -420zm-2224 -120l506 28 231 420 -515 -28 -222 -420zm484 920l519 27 218 418 -524 -28 -213 -417zm568 30l519 29 218 415 -520 -29 -217 -415zm-249 -460l515 30 236 420 -515 -28 -236 -422zm-559 -30l511 27 230 423 -515 -30 -226 -420zm1372 522l515 27 226 415 -519 -27 -222 -415zm568 30l515 22 231 418 -524 -25 -222 -415zm-258 -460l511 25 244 420 -515 -23 -240 -422zm-563 -30l515 27 239 423 -519 -30 -235 -420zm-253 -462l510 30 235 420 -510 -28 -235 -422zm559 32l506 25 244 420 -515 -25 -235 -420zm-1114 -62l510 27 231 423 -510 -30 -231 -420zm1931 549l510 13 249 417 -515 -10 -244 -420zm-1585 1248l528 30 178 410 -528 -27 -178 -413zm377 900l533 27 160 408 -533 -28 -160 -407zm586 29l533 25 164 408 -537 -25 -160 -408zm-191 -447l529 25 182 410 -533 -25 -178 -410zm-581 -32l528 30 178 410 -533 -30 -173 -410zm1354 507l533 27 168 405 -537 -25 -164 -407zm-195 -448l528 28 182 410 -533 -27 -177 -411zm-200 -452l524 30 186 410 -528 -27 -182 -413zm577 32l524 25 191 410 -529 -24 -186 -411zm-200 -452l520 27 190 411 -523 -23 -187 -415zm-573 -27l524 25 182 415 -524 -30 -182 -410zm-377 422l524 23 186 412 -528 -25 -182 -410zm-191 -452l524 27 182 410 -524 -27 -182 -410zm-568 -30l519 27 178 413 -524 -27 -173 -413zm-1496 2075l537 38 116 407 -542 -37 -111 -408zm-2362 -211l537 47 98 410 -541 -47 -94 -410zm200 897l551 48 88 407 -555 -45 -84 -410zm599 50l551 47 93 408 -555 -47 -89 -408zm-106 -447l550 49 98 408 -551 -47 -97 -410zm-591 -50l542 47 98 408 -546 -45 -94 -410zm1301 549l551 47 93 408 -555 -45 -89 -410zm599 52l546 43 103 407 -551 -42 -98 -408zm-111 -444l542 44 107 405 -546 -44 -103 -405zm-599 -53l546 48 107 407 -551 -47 -102 -408zm-111 -447l542 50 106 407 -546 -49 -102 -408zm591 55l541 44 111 408 -541 -45 -111 -407zm-116 -450l537 47 107 408 -542 -48 -102 -407zm-590 -55l541 50 102 410 -541 -52 -102 -408zm-480 395l546 50 102 410 -546 -50 -102 -410zm-111 -452l537 52 107 410 -542 -49 -102 -413zm-581 -55l532 50 98 413 -537 -50 -93 -413zm2708 1556l546 37 102 403 -551 -35 -97 -405zm599 40l546 37 111 405 -555 -37 -102 -405zm-120 -443l542 38 115 405 -546 -37 -111 -406zm-599 -42l546 38 111 402 -551 -35 -106 -405zm1318 525l546 39 111 401 -550 -35 -107 -405zm600 42l546 32 115 403 -550 -30 -111 -405zm-129 -442l541 34 125 403 -546 -32 -120 -405zm-599 -40l546 37 119 403 -550 -38 -115 -402zm-129 -445l541 40 120 405 -541 -40 -120 -405zm590 45l542 32 129 405 -546 -35 -125 -402zm-133 -448l537 35 125 405 -542 -35 -120 -405zm-586 -42l537 37 116 408 -537 -37 -116 -408zm-462 403l542 37 120 405 -546 -37 -116 -405zm-124 -448l537 40 116 408 -542 -40 -111 -408zm-586 -42l533 40 111 405 -537 -37 -107 -408zm2482 611l541 28 129 402 -542 -27 -128 -403zm275 883l546 25 120 402 -551 -25 -115 -402zm599 27l546 22 125 403 -551 -22 -120 -403zm-137 -437l541 22 133 400 -546 -22 -128 -400zm-600 -30l546 27 129 400 -550 -25 -125 -402zm897 -830l537 25 133 405 -537 -28 -133 -402zm-439 417l537 25 137 403 -546 -25 -128 -403zm-143 -442l538 25 128 400 -541 -23 -125 -402zm-590 -30l537 25 125 405 -538 -27 -124 -403zm-2837 -1524l524 40 160 415 -528 -42 -156 -413zm-2295 -231l524 53 147 417 -529 -52 -142 -418zm302 912l533 53 133 415 -537 -50 -129 -418zm582 55l532 55 134 412 -533 -49 -133 -418zm-156 -452l529 52 146 415 -533 -50 -142 -417zm-577 -57l528 52 143 417 -529 -49 -142 -420zm1314 566l542 55 137 413 -541 -53 -138 -415zm591 57l532 50 138 413 -533 -47 -137 -416zm-165 -449l529 47 155 415 -533 -47 -151 -415zm-586 -60l538 55 150 412 -541 -49 -147 -418zm-164 -457l533 54 155 418 -537 -55 -151 -417zm582 59l524 50 159 418 -528 -50 -155 -418zm-169 -454l524 52 160 415 -524 -50 -160 -417zm-573 -60l529 55 155 417 -533 -55 -151 -417zm-413 398l524 52 151 417 -528 -52 -147 -417zm-155 -460l520 54 150 420 -523 -54 -147 -420zm-568 -60l519 55 151 420 -524 -52 -146 -423zm2792 1598l528 37 147 413 -537 -37 -138 -413zm582 45l532 37 151 413 -537 -40 -146 -410zm-173 -452l528 42 164 412 -533 -42 -159 -412zm-582 -45l528 40 160 415 -533 -43 -155 -412zm1336 539l533 42 151 408 -533 -37 -151 -413zm586 45l533 37 155 408 -537 -35 -151 -410zm-182 -445l529 32 168 413 -532 -35 -165 -410zm-581 -50l528 43 169 412 -533 -42 -164 -413zm-182 -452l524 42 173 415 -529 -42 -168 -415zm577 47l524 37 173 413 -529 -37 -168 -413zm-182 -452l519 37 173 415 -524 -37 -168 -415zm-573 -47l520 42 173 415 -524 -42 -169 -415zm-395 405l524 42 169 415 -529 -40 -164 -417zm-173 -453l519 43 169 415 -524 -43 -164 -415zm-573 -44l524 39 160 415 -524 -42 -160 -412zm-2472 -699l515 55 186 420 -524 -52 -177 -423zm563 57l515 58 187 422 -520 -57 -182 -423zm-213 -464l511 57 204 427 -519 -59 -196 -425zm-559 -60l510 55 200 425 -515 -52 -195 -428zm1332 587l528 57 191 420 -528 -55 -191 -422zm572 62l520 52 195 420 -519 -52 -196 -420zm-222 -463l515 53 209 422 -515 -52 -209 -423zm-563 -64l519 59 204 423 -524 -57 -199 -425zm1349 584l515 42 204 420 -519 -45 -200 -417zm568 47l515 42 205 418 -520 -42 -200 -418zm-230 -462l510 45 222 422 -515 -45 -217 -422zm-564 -47l515 42 213 422 -515 -42 -213 -422zm1358 556l515 45 209 415 -520 -42 -204 -418zm568 48l515 39 213 418 -519 -40 -209 -417zm-239 -458l510 38 227 420 -515 -38 -222 -420zm-564 -49l510 42 227 422 -520 -44 -217 -420zm2961 5005l555 25 89 395 -560 -22 -84 -398zm186 872l564 23 84 397 -568 -22 -80 -398zm-93 -437l559 22 94 400 -564 -22 -89 -400zm515 -408l555 23 93 397 -559 -22 -89 -398zm-102 -437l555 22 98 400 -555 -22 -98 -400zm-604 -27l551 24 93 401 -555 -25 -89 -400zm426 2174l569 23 57 395 -572 -23 -54 -395zm111 865l582 20 53 395 -581 -17 -54 -398zm-53 -432l577 22 53 393 -577 -20 -53 -395zm-115 -865l568 25 58 395 -573 -20 -53 -400zm-2322 2038l586 27 9 398 -591 -28 -4 -397zm-2566 -152l586 35 -4 400 -591 -32 9 -403zm-22 880l595 30 -9 402 -599 -29 13 -403zm648 32l595 35 -5 400 -599 -32 9 -403zm9 -435l590 33 -4 400 -595 -32 9 -401zm-644 -37l591 35 -9 400 -595 -35 13 -400zm1283 510l599 32 0 400 -603 -32 4 -400zm653 37l595 30 4 397 -599 -29 0 -398zm0 -435l590 30 5 397 -595 -29 0 -398zm-648 -40l594 37 0 398 -599 -35 5 -400zm0 -435l590 35 4 400 -594 -35 0 -400zm643 38l591 34 4 398 -590 -32 -5 -400zm-4 -433l581 35 14 395 -591 -35 -4 -395zm-639 -40l586 38 4 395 -590 -35 0 -398zm-640 396l586 37 0 397 -590 -34 4 -400zm0 -438l586 40 0 398 -586 -38 0 -400zm-635 -37l582 35 0 400 -586 -35 4 -400zm2571 1456l595 28 9 395 -600 -25 -4 -398zm657 30l595 25 9 395 -595 -22 -9 -398zm-9 -432l590 27 14 393 -595 -25 -9 -395zm-653 -33l591 30 13 395 -595 -27 -9 -398zm1310 492l595 28 18 392 -600 -24 -13 -396zm653 30l594 23 23 392 -600 -20 -17 -395zm-18 -430l590 25 22 390 -594 -22 -18 -393zm-648 -30l590 28 18 392 -595 -24 -13 -396zm-18 -432l586 27 22 393 -590 -25 -18 -395zm644 30l590 27 22 393 -590 -28 -22 -392zm-23 -428l582 25 27 390 -586 -22 -23 -393zm-639 -32l582 27 22 393 -586 -27 -18 -393zm-621 398l586 29 13 396 -590 -28 -9 -397zm-18 -428l586 28 18 392 -586 -27 -18 -393zm-639 -35l581 28 18 395 -586 -27 -13 -396zm2583 552l586 18 27 392 -591 -17 -22 -393zm45 860l595 17 26 393 -599 -17 -22 -393zm-23 -430l591 17 27 393 -595 -15 -23 -395zm-53 -857l586 20 27 390 -586 -20 -27 -390zm-2659 -1432l568 32 40 398 -572 -32 -36 -398zm-2504 -171l577 37 27 402 -581 -39 -23 -400zm49 882l582 35 17 405 -581 -37 -18 -403zm635 40l577 39 27 401 -586 -38 -18 -402zm-27 -440l577 40 27 400 -577 -40 -27 -400zm-630 -43l577 40 27 400 -577 -34 -27 -406zm1287 525l582 37 31 400 -590 -37 -23 -400zm635 40l582 37 31 398 -582 -35 -31 -400zm-31 -435l573 35 40 400 -582 -38 -31 -397zm-635 -45l582 40 31 400 -582 -37 -31 -403zm-31 -437l577 39 31 400 -577 -39 -31 -400zm626 42l573 37 35 400 -572 -37 -36 -400zm-31 -438l568 43 36 400 -573 -40 -31 -403zm-626 -42l573 40 35 400 -577 -40 -31 -400zm-590 390l568 40 31 403 -577 -38 -22 -405zm-27 -435l568 40 27 403 -568 -42 -27 -401zm-621 -47l568 40 26 405 -577 -40 -17 -405zm2597 1486l581 30 36 398 -582 -30 -35 -398zm639 33l577 30 40 395 -582 -28 -35 -397zm-45 -435l578 30 44 397 -582 -30 -40 -397zm-630 -35l577 32 40 398 -581 -30 -36 -400zm1305 505l577 27 49 398 -586 -30 -40 -395zm635 32l582 27 48 393 -586 -25 -44 -395zm-49 -433l573 25 53 398 -577 -30 -49 -393zm-630 -34l572 29 49 396 -577 -30 -44 -395zm-53 -438l572 35 49 398 -577 -35 -44 -398zm625 37l573 28 53 395 -577 -25 -49 -398zm-48 -432l568 30 53 395 -573 -27 -48 -398zm-622 -35l568 33 49 397 -572 -32 -45 -398zm-577 398l568 30 49 397 -577 -29 -40 -398zm-44 -435l568 35 44 395 -568 -32 -44 -398zm-622 -35l568 32 40 398 -572 -30 -36 -400zm-2655 -1511l555 45 58 402 -559 -44 -54 -403zm120 887l569 45 53 403 -573 -40 -49 -408zm622 48l559 42 58 405 -568 -42 -49 -405zm-67 -445l560 44 66 406 -564 -45 -62 -405zm-612 -45l559 42 62 405 -568 -42 -53 -405zm1291 534l569 48 57 400 -568 -43 -58 -405zm617 50l564 40 62 402 -563 -42 -63 -400zm-71 -442l560 42 71 402 -564 -39 -67 -405zm-612 -50l564 45 66 405 -568 -45 -62 -405zm-71 -440l559 45 67 402 -564 -44 -62 -403zm612 50l555 44 67 398 -559 -40 -63 -402zm-75 -443l550 43 76 405 -555 -43 -71 -405zm-608 -49l555 47 71 402 -560 -44 -66 -405zm-537 392l559 47 62 403 -559 -45 -62 -405zm-67 -442l555 47 67 403 -560 -45 -62 -405zm-604 -52l551 44 66 411 -559 -48 -58 -407zm2651 1518l563 33 67 402 -568 -32 -62 -403zm617 38l563 34 71 400 -568 -34 -66 -400zm-80 -440l559 34 80 401 -564 -33 -75 -402zm-617 -38l559 35 75 400 -559 -32 -75 -403zm1309 515l564 32 75 400 -563 -32 -76 -400zm622 37l563 27 76 401 -564 -30 -75 -398zm-89 -437l555 29 89 398 -564 -27 -80 -400zm-617 -38l559 35 85 398 -564 -32 -80 -401zm-84 -437l554 35 80 400 -559 -35 -75 -400zm608 37l555 35 84 395 -559 -30 -80 -400zm-89 -435l550 30 89 403 -555 -35 -84 -398zm-608 -42l550 37 89 400 -555 -37 -84 -400zm-520 400l555 35 80 400 -559 -35 -76 -400zm-80 -437l551 35 80 400 -555 -35 -76 -400zm-608 -42l551 34 80 405 -555 -34 -76 -405zm-22169 10249l630 15 -53 457 -631 -17 54 -455zm-3734 -6248l599 27 -164 465 -604 -30 169 -462zm-2646 -104l609 22 -182 465 -604 -20 177 -467zm-390 1021l608 22 -182 465 -613 -20 187 -467zm666 25l612 22 -177 465 -613 -20 178 -467zm190 -512l609 25 -173 465 -609 -23 173 -467zm-665 -22l608 19 -178 470 -608 -22 178 -467zm1140 559l613 22 -177 460 -613 -20 177 -462zm671 25l612 19 -173 463 -612 -20 173 -462zm186 -510l608 22 -168 463 -613 -20 173 -465zm-670 -25l613 20 -174 467 -608 -20 169 -467zm195 -509l604 22 -173 467 -604 -24 173 -465zm662 25l603 24 -164 463 -608 -20 169 -467zm186 -505l599 22 -164 463 -599 -23 164 -462zm-657 -30l599 25 -168 465 -600 -25 169 -465zm-852 482l608 25 -178 465 -603 -22 173 -468zm200 -507l599 23 -173 465 -600 -23 174 -465zm-657 -29l599 24 -178 465 -603 -22 182 -467zm2073 1630l612 27 -168 460 -613 -25 169 -462zm666 30l612 27 -164 460 -617 -30 169 -457zm177 -507l608 30 -159 459 -613 -27 164 -462zm-661 -30l603 27 -159 463 -613 -25 169 -465zm1154 567l608 27 -160 457 -612 -25 164 -459zm666 29l608 28 -155 457 -613 -27 160 -458zm164 -502l608 28 -151 457 -608 -25 151 -460zm-661 -32l608 27 -156 463 -608 -30 156 -460zm182 -504l594 29 -150 463 -609 -33 165 -459zm652 34l604 28 -151 459 -608 -27 155 -460zm173 -502l600 30 -156 457 -599 -29 155 -458zm-652 -37l599 35 -155 457 -600 -32 156 -460zm-835 472l604 30 -160 460 -613 -27 169 -463zm178 -504l603 30 -159 459 -604 -29 160 -460zm-653 -35l599 32 -164 460 -599 -30 164 -462zm-914 2535l617 25 -160 462 -617 -20 160 -467zm-2699 -87l617 20 -173 470 -622 -18 178 -472zm-373 1026l621 18 -142 475 -626 -20 147 -473zm683 23l622 17 -142 470 -622 -17 142 -470zm182 -512l617 17 -164 470 -626 -17 173 -470zm-688 -20l626 17 -168 468 -622 -18 164 -467zm1186 549l621 18 -138 469 -625 -17 142 -470zm683 20l626 15 -142 470 -626 -18 142 -467zm173 -509l622 19 -160 465 -621 -17 159 -467zm-679 -20l622 20 -160 464 -631 -15 169 -469zm182 -512l617 17 -164 470 -622 -20 169 -467zm679 20l617 22 -164 465 -617 -18 164 -469zm182 -510l613 22 -164 465 -617 -20 168 -467zm-674 -22l612 20 -164 467 -617 -20 169 -467zm-857 492l617 17 -169 467 -621 -17 173 -467zm186 -515l613 20 -169 468 -617 -18 173 -470zm-674 -22l617 20 -174 470 -617 -23 174 -467zm2166 1615l617 23 -133 467 -626 -22 142 -468zm675 25l626 23 -134 464 -630 -19 138 -468zm168 -507l622 25 -156 462 -621 -22 155 -465zm-679 -25l622 23 -160 467 -617 -25 155 -465zm1194 557l622 20 -133 465 -622 -20 133 -465zm679 23l622 24 -129 460 -626 -20 133 -464zm160 -502l617 22 -146 462 -622 -25 151 -459zm-674 -25l621 22 -155 462 -622 -22 156 -462zm168 -507l617 25 -151 462 -621 -25 155 -462zm675 27l617 22 -155 460 -617 -22 155 -460zm169 -505l612 25 -151 460 -617 -25 156 -460zm-671 -29l613 27 -155 460 -613 -25 155 -462zm-848 477l622 27 -160 462 -621 -24 159 -465zm174 -507l617 27 -156 465 -621 -27 160 -465zm-671 -25l617 22 -159 465 -618 -22 160 -465zm-830 2547l626 18 -111 470 -626 -18 111 -470zm-2299 982l630 15 -98 472 -630 -12 98 -475zm119 -514l626 15 -106 469 -626 -12 106 -472zm569 529l626 13 -94 472 -630 -13 98 -472zm688 15l630 12 -93 470 -630 -12 93 -470zm120 -512l626 12 -103 468 -630 -13 107 -467zm-693 -17l630 15 -106 467 -630 -13 106 -469zm124 -515l626 15 -115 470 -626 -13 115 -472zm688 15l626 15 -111 470 -630 -13 115 -472zm156 -512l626 15 -142 467 -626 -12 142 -470zm-688 -17l626 15 -142 469 -626 -15 142 -469zm-839 497l626 15 -116 472 -626 -15 116 -472zm160 -515l625 15 -146 470 -626 -15 147 -470zm-689 -20l626 18 -146 472 -626 -17 146 -473zm2349 1608l630 18 -93 467 -635 -12 98 -473zm688 18l630 17 -93 467 -635 -14 98 -470zm111 -510l635 18 -102 464 -635 -14 102 -468zm-684 -17l626 15 -102 467 -626 -15 102 -467zm1261 544l630 18 -93 464 -630 -12 93 -470zm688 20l630 15 -93 462 -630 -12 93 -465zm111 -507l630 17 -102 463 -626 -18 98 -462zm-684 -20l626 18 -97 464 -631 -17 102 -465zm116 -509l626 20 -107 462 -630 -18 111 -464zm683 20l626 19 -106 463 -626 -18 106 -464zm147 -507l626 19 -133 463 -626 -18 133 -464zm-684 -23l626 23 -133 462 -626 -20 133 -465zm-834 490l630 17 -111 467 -630 -19 111 -465zm151 -512l630 22 -138 465 -630 -20 138 -467zm-684 -23l626 20 -138 465 -626 -17 138 -468zm-2672 -2142l612 13 -177 469 -617 -12 182 -470zm204 -512l608 15 -186 465 -613 -13 191 -467zm195 -512l608 15 -182 467 -608 -15 182 -467zm-457 -529l604 15 -182 469 -609 -17 187 -467zm661 17l604 15 -182 467 -604 -12 182 -470zm205 -512l603 18 -186 467 -599 -15 182 -470zm-657 -20l599 18 -187 467 -599 -15 187 -470zm1975 6778l630 10 -53 470 -626 -13 49 -467zm-2113 1001l630 10 14 475 -626 -10 -18 -475zm-5 -519l626 10 9 475 -630 -10 -5 -475zm689 529l630 5 9 475 -626 -5 -13 -475zm692 8l626 7 9 475 -626 -10 -9 -472zm-4 -517l630 10 0 472 -626 -10 -4 -472zm-693 -10l631 7 4 475 -626 -7 -9 -475zm58 -515l630 10 -53 468 -630 -8 53 -470zm692 10l626 10 -49 470 -630 -10 53 -470zm54 -517l634 13 -53 470 -630 -8 49 -475zm-688 -12l634 12 -57 473 -631 -10 54 -475zm-746 507l630 10 -53 470 -626 -8 49 -472zm57 -519l631 10 -53 474 -631 -10 53 -474zm1954 1583l626 7 9 472 -626 -7 -9 -472zm683 10l631 10 4 469 -630 -10 -5 -469zm0 -515l635 10 0 470 -635 -10 0 -470zm-683 -12l626 12 0 467 -626 -7 0 -472zm1371 537l626 12 5 467 -626 -7 -5 -472zm684 12l631 10 0 467 -626 -10 -5 -467zm9 -512l626 13 -4 464 -626 -7 4 -470zm-688 -12l630 12 -4 470 -626 -13 0 -469zm58 -510l630 15 -53 462 -631 -12 54 -465zm683 15l631 15 -54 462 -626 -12 49 -465zm62 -509l631 12 -53 465 -631 -10 53 -467zm-683 -18l626 15 -54 467 -630 -15 58 -467zm-755 497l635 13 -53 467 -635 -12 53 -468zm58 -512l635 15 -54 467 -634 -14 53 -468zm-684 -17l631 15 -58 470 -631 -15 58 -470zm-49 2575l622 7 71 470 -617 -5 -76 -472zm-1829 1024l613 2 178 472 -609 -2 -182 -472zm-115 -522l621 5 94 474 -617 -5 -98 -474zm786 524l612 3 169 469 -608 0 -173 -472zm670 3l617 2 160 472 -608 -5 -169 -469zm-102 -517l617 5 84 469 -612 -2 -89 -472zm-679 -5l617 2 89 475 -613 -3 -93 -474zm-98 -520l626 5 84 475 -621 -5 -89 -475zm684 5l621 8 80 469 -617 -2 -84 -475zm-54 -514l622 7 49 472 -626 -5 -45 -474zm-688 -5l626 5 49 472 -626 -2 -49 -475zm-621 509l626 5 89 475 -622 -3 -93 -477zm-62 -519l626 7 48 475 -621 -7 -53 -475zm2290 1568l613 3 155 472 -603 -3 -165 -472zm671 5l617 5 146 467 -608 -2 -155 -470zm-94 -514l622 5 75 469 -621 -5 -76 -469zm-674 -5l617 5 80 469 -613 -5 -84 -469zm1438 524l613 5 142 467 -604 -2 -151 -470zm670 5l613 5 133 465 -604 -3 -142 -467zm-84 -512l617 8 67 464 -613 -2 -71 -470zm-675 -5l622 5 66 467 -612 -5 -76 -467zm-75 -512l621 8 67 464 -617 -5 -71 -467zm679 8l621 5 63 467 -617 -8 -67 -464zm-44 -510l626 10 31 465 -622 -8 -35 -467zm-684 -10l626 8 35 469 -617 -10 -44 -467zm-635 502l626 8 71 469 -621 -5 -76 -472zm-49 -512l631 10 35 467 -621 -7 -45 -470zm-683 -7l626 5 44 472 -626 -5 -44 -472zm-245 2058l604 2 156 467 -600 0 -160 -469zm-665 -5l603 5 165 469 -600 -2 -168 -472zm-662 0l604 0 169 472 -600 0 -173 -472zm-666 -5l604 5 178 472 -600 -5 -182 -472zm4639 20l608 2 125 462 -600 0 -133 -464zm-657 -3l604 3 133 464 -599 -2 -138 -465zm-666 -2l609 2 137 465 -604 0 -142 -467zm-661 -3l604 3 146 464 -599 0 -151 -467zm11937 -9086l604 42 -102 437 -608 -42 106 -437zm-2628 -189l599 44 -115 443 -608 -42 124 -445zm-266 974l608 42 -124 440 -613 -37 129 -445zm666 45l608 37 -120 440 -613 -37 125 -440zm124 -485l608 40 -115 440 -609 -38 116 -442zm-662 -47l609 42 -120 445 -608 -42 119 -445zm1199 574l613 40 -125 437 -608 -40 120 -437zm670 42l609 38 -116 434 -613 -34 120 -438zm120 -479l604 37 -107 437 -608 -37 111 -437zm-666 -48l609 43 -111 440 -613 -40 115 -443zm129 -479l599 42 -106 437 -608 -39 115 -440zm662 44l599 45 -107 435 -603 -40 111 -440zm119 -479l595 44 -106 438 -595 -45 106 -437zm-657 -50l600 45 -111 440 -600 -43 111 -442zm-781 437l599 40 -111 443 -608 -40 120 -443zm129 -487l599 48 -115 439 -600 -42 116 -445zm-648 -44l595 42 -120 442 -595 -42 120 -442zm2255 1627l612 40 -111 435 -612 -40 111 -435zm670 45l613 38 -111 432 -613 -37 111 -433zm111 -477l608 40 -102 435 -608 -40 102 -435zm-666 -47l608 42 -106 437 -608 -42 106 -437zm1221 564l608 42 -102 430 -613 -40 107 -432zm670 45l609 37 -98 427 -613 -34 102 -430zm102 -472l609 39 -94 430 -612 -37 97 -432zm-665 -48l608 45 -98 432 -608 -42 98 -435zm111 -472l603 45 -97 430 -604 -40 98 -435zm661 47l604 43 -93 430 -604 -40 93 -433zm107 -469l599 42 -93 430 -600 -42 94 -430zm-657 -53l599 48 -98 430 -599 -43 98 -435zm-768 428l603 45 -102 432 -604 -42 103 -435zm115 -475l599 45 -102 432 -599 -44 102 -433zm-661 -52l599 47 -102 435 -600 -45 103 -437zm-600 2391l617 37 -111 438 -617 -35 111 -440zm-2690 -152l617 35 -124 445 -617 -35 124 -445zm-266 975l621 32 -106 445 -626 -30 111 -447zm679 34l621 30 -111 445 -617 -30 107 -445zm129 -484l617 34 -116 443 -621 -32 120 -445zm-680 -38l622 33 -120 447 -621 -32 119 -448zm1230 557l617 30 -102 442 -626 -27 111 -445zm679 32l622 33 -102 440 -622 -30 102 -443zm120 -479l622 32 -111 440 -626 -30 115 -442zm-675 -35l613 32 -111 443 -617 -33 115 -442zm129 -487l613 37 -116 440 -617 -32 120 -445zm675 40l617 34 -115 440 -622 -35 120 -439zm129 -480l612 35 -115 437 -617 -35 120 -437zm-671 -42l608 37 -115 440 -613 -35 120 -442zm-803 445l617 34 -120 445 -622 -35 125 -444zm133 -485l613 37 -120 440 -617 -35 124 -442zm-670 -42l617 39 -125 443 -617 -35 125 -447zm2312 1600l622 30 -98 440 -626 -30 102 -440zm684 33l622 34 -98 435 -622 -30 98 -439zm116 -475l617 35 -107 435 -621 -33 111 -437zm-684 -35l621 32 -111 438 -621 -33 111 -437zm1247 547l622 32 -93 433 -626 -30 97 -435zm680 35l625 29 -93 430 -626 -27 94 -432zm111 -473l621 33 -102 430 -622 -30 103 -433zm-680 -37l617 35 -102 432 -621 -32 106 -435zm116 -475l617 35 -102 435 -622 -37 107 -433zm679 40l617 32 -102 430 -622 -29 107 -433zm115 -472l613 35 -102 430 -617 -35 106 -430zm-674 -42l612 37 -106 432 -617 -37 111 -432zm-791 435l617 37 -111 432 -617 -32 111 -437zm120 -475l613 37 -107 433 -617 -35 111 -435zm-674 -45l617 40 -116 437 -612 -39 111 -438zm-6073 2177l626 23 -98 455 -631 -23 103 -455zm-2739 -99l626 22 -107 460 -626 -20 107 -462zm-222 1011l626 20 -94 460 -630 -17 98 -463zm679 20l630 20 -89 460 -630 -17 89 -463zm115 -504l622 22 -93 460 -631 -20 102 -462zm-688 -23l631 23 -103 460 -626 -20 98 -463zm1265 550l631 17 -89 457 -630 -14 88 -460zm688 20l631 20 -89 454 -630 -17 88 -457zm107 -500l626 20 -93 455 -631 -20 98 -455zm-688 -22l630 17 -97 460 -626 -18 93 -459zm115 -505l626 23 -106 457 -626 -20 106 -460zm684 23l621 27 -102 452 -626 -20 107 -459zm138 -498l626 25 -129 455 -622 -22 125 -458zm-684 -24l626 22 -124 455 -626 -20 124 -457zm-826 474l626 23 -106 459 -626 -19 106 -463zm142 -504l626 27 -129 457 -625 -22 128 -462zm-683 -25l626 22 -129 463 -626 -23 129 -462zm2388 1603l626 20 -84 455 -631 -20 89 -455zm684 22l630 20 -89 453 -626 -18 85 -455zm102 -497l630 23 -93 452 -626 -22 89 -453zm-684 -22l626 20 -89 455 -630 -23 93 -452zm1274 542l631 22 -89 450 -631 -20 89 -452zm688 22l626 17 -84 450 -631 -15 89 -452zm98 -492l630 22 -89 448 -630 -20 89 -450zm-684 -25l626 25 -89 447 -630 -22 93 -450zm102 -494l626 24 -97 453 -626 -25 97 -452zm684 27l626 22 -93 450 -631 -22 98 -450zm129 -492l626 25 -116 447 -626 -25 116 -447zm-684 -30l626 27 -115 450 -626 -25 115 -452zm-817 467l626 25 -97 452 -626 -22 97 -455zm133 -497l626 25 -119 455 -626 -25 119 -455zm-679 -27l622 25 -120 454 -626 -24 124 -455zm5341 723l626 27 -85 440 -630 -27 89 -440zm-2735 -119l626 27 -93 447 -626 -24 93 -450zm-200 981l626 20 -84 450 -630 -20 88 -450zm684 25l630 23 -84 445 -630 -23 84 -445zm98 -487l626 25 -85 442 -630 -22 89 -445zm-684 -27l630 25 -93 445 -621 -23 84 -447zm1274 542l630 20 -84 444 -630 -22 84 -442zm688 25l630 19 -84 443 -630 -20 84 -442zm98 -485l626 25 -85 437 -626 -20 85 -442zm-693 -27l631 24 -85 443 -630 -23 84 -444zm98 -488l626 30 -89 440 -630 -25 93 -445zm688 33l626 25 -89 439 -626 -24 89 -440zm120 -485l626 27 -107 440 -626 -25 107 -442zm-688 -35l626 33 -107 442 -626 -27 107 -448zm-799 458l621 27 -89 445 -630 -25 98 -447zm124 -488l622 28 -111 445 -622 -28 111 -445zm-684 -32l626 30 -111 445 -626 -27 111 -448zm2424 1571l631 22 -85 443 -630 -23 84 -442zm693 25l630 25 -84 437 -631 -22 85 -440zm89 -477l630 27 -80 432 -630 -22 80 -437zm-689 -28l626 25 -80 437 -630 -22 84 -440zm1288 530l626 24 -80 438 -631 -23 85 -439zm688 27l630 20 -80 435 -630 -20 80 -435zm89 -475l630 25 -80 430 -630 -22 80 -433zm-688 -27l626 25 -80 432 -626 -20 80 -437zm88 -477l626 27 -84 435 -626 -27 84 -435zm688 30l626 27 -80 430 -630 -23 84 -434zm111 -473l626 28 -97 430 -631 -25 102 -433zm-688 -34l626 29 -97 435 -631 -30 102 -434zm-794 447l626 27 -85 438 -630 -28 89 -437zm115 -480l626 30 -102 437 -626 -29 102 -438zm-688 -32l626 30 -102 440 -626 -30 102 -440zm-5030 -1730l617 30 -133 452 -621 -30 137 -452zm-2694 -129l612 30 -146 459 -622 -29 156 -460zm-324 1009l626 22 -129 460 -622 -22 125 -460zm679 27l626 25 -124 460 -626 -25 124 -460zm155 -499l617 25 -137 457 -622 -25 142 -457zm-679 -33l622 28 -142 460 -622 -25 142 -463zm1208 560l625 22 -124 460 -621 -23 120 -459zm679 24l621 30 -115 453 -626 -25 120 -458zm146 -497l622 33 -133 452 -626 -25 137 -460zm-675 -27l618 27 -134 455 -626 -25 142 -457zm156 -500l617 30 -142 453 -617 -25 142 -458zm675 33l617 30 -142 452 -617 -30 142 -452zm155 -500l613 33 -138 452 -617 -30 142 -455zm-670 -30l612 28 -142 457 -617 -30 147 -455zm-835 468l617 27 -146 457 -617 -27 146 -457zm164 -502l609 29 -143 458 -617 -30 151 -457zm-670 -33l617 28 -155 459 -613 -29 151 -458zm2237 1621l617 27 -115 452 -621 -27 119 -452zm675 30l622 27 -111 452 -626 -27 115 -452zm147 -495l612 30 -128 452 -618 -30 134 -452zm-680 -30l622 27 -133 453 -622 -28 133 -452zm1217 554l621 30 -111 450 -626 -27 116 -453zm679 33l622 27 -107 447 -626 -24 111 -450zm133 -490l622 30 -125 447 -621 -27 124 -450zm-675 -35l617 35 -124 447 -621 -29 128 -453zm147 -489l613 32 -129 450 -617 -32 133 -450zm670 34l617 33 -128 445 -617 -30 128 -448zm142 -489l613 32 -129 448 -617 -33 133 -447zm-666 -37l609 34 -129 448 -613 -33 133 -449zm-821 454l617 35 -137 448 -617 -30 137 -453zm147 -492l612 33 -133 452 -613 -32 134 -453zm-671 -34l617 32 -137 450 -617 -30 137 -452zm453 -1484l604 40 -133 449 -604 -37 133 -452zm-2632 -154l603 34 -146 458 -608 -35 151 -457zm-329 1001l608 33 -151 454 -617 -29 160 -458zm666 38l608 29 -155 455 -608 -32 155 -452zm155 -500l609 32 -142 455 -613 -32 146 -455zm-661 -40l608 33 -146 459 -613 -32 151 -460zm1172 574l608 33 -146 449 -613 -29 151 -453zm661 35l613 32 -142 450 -617 -32 146 -450zm156 -497l603 35 -137 450 -608 -33 142 -452zm-662 -37l608 35 -146 452 -604 -32 142 -455zm160 -497l604 34 -142 455 -604 -34 142 -455zm657 37l599 37 -137 450 -599 -32 137 -455zm155 -495l600 40 -138 448 -599 -35 137 -453zm-652 -37l599 35 -142 452 -599 -35 142 -452zm-821 457l603 35 -142 453 -608 -33 147 -455zm164 -499l595 35 -142 454 -600 -34 147 -455zm-653 -42l595 37 -146 457 -600 -37 151 -457zm2167 1645l612 35 -142 450 -612 -33 142 -452zm666 40l608 34 -133 445 -613 -32 138 -447zm142 -492l608 34 -129 448 -613 -33 134 -449zm-662 -43l608 38 -133 449 -608 -34 133 -453zm1190 572l608 37 -133 445 -613 -35 138 -447zm666 40l604 35 -129 442 -613 -32 138 -445zm133 -490l604 37 -125 445 -603 -35 124 -447zm-661 -42l608 42 -125 445 -612 -37 129 -450zm142 -490l603 43 -124 444 -604 -39 125 -448zm657 45l603 37 -124 445 -599 -37 120 -445zm142 -490l599 43 -124 445 -600 -40 125 -448zm-657 -42l599 40 -124 447 -600 -40 125 -447zm-804 445l604 40 -129 447 -604 -37 129 -450zm147 -492l599 42 -129 448 -599 -40 129 -450zm-648 -42l594 39 -133 450 -595 -37 134 -452zm3817 6611l631 20 -58 439 -630 -19 57 -440zm-2752 -82l630 20 -57 444 -626 -17 53 -447zm-84 984l626 12 -18 453 -626 -15 18 -450zm683 15l626 15 -18 447 -626 -12 18 -450zm27 -490l630 15 -26 450 -626 -17 22 -448zm-684 -20l626 18 -22 447 -626 -12 22 -453zm1341 527l630 15 -26 445 -626 -15 22 -445zm692 18l626 12 -26 442 -626 -10 26 -444zm31 -488l626 15 -26 443 -631 -13 31 -445zm-692 -17l630 15 -26 445 -631 -15 27 -445zm62 -490l626 20 -53 443 -631 -15 58 -448zm688 23l631 17 -58 440 -626 -15 53 -442zm62 -487l631 22 -54 442 -630 -19 53 -445zm-688 -23l631 23 -58 442 -630 -20 57 -445zm-750 470l630 17 -57 443 -631 -15 58 -445zm62 -495l631 23 -58 447 -631 -17 58 -453zm-683 -19l625 19 -57 450 -631 -20 63 -449zm2592 1540l626 15 -27 443 -626 -18 27 -440zm688 18l626 12 -31 440 -626 -12 31 -440zm36 -482l630 15 -35 440 -626 -15 31 -440zm-693 -20l630 17 -31 443 -626 -18 27 -442zm1341 514l626 18 -31 437 -626 -15 31 -440zm688 20l630 10 -35 435 -626 -10 31 -435zm40 -479l630 17 -35 432 -631 -12 36 -437zm-688 -20l626 20 -36 437 -626 -17 36 -440zm57 -475l631 17 -58 435 -626 -17 53 -435zm693 20l630 17 -57 433 -631 -15 58 -435zm67 -475l630 20 -58 432 -630 -17 58 -435zm-693 -25l630 23 -57 435 -631 -18 58 -440zm-750 460l630 17 -58 438 -630 -18 58 -437zm62 -482l630 22 -57 438 -631 -20 58 -440zm-693 -25l631 22 -58 443 -630 -23 57 -442zm-182 2418l622 10 9 443 -622 -10 -9 -443zm-2716 -47l621 12 22 448 -617 -8 -26 -452zm66 989l613 5 71 450 -604 -5 -80 -450zm666 8l613 5 66 447 -603 -5 -76 -447zm-31 -495l617 10 22 447 -617 -5 -22 -452zm-675 -7l617 7 27 450 -613 -8 -31 -449zm1376 509l613 5 58 445 -604 -5 -67 -445zm675 5l613 5 49 442 -604 -2 -58 -445zm-26 -485l621 5 9 443 -613 -3 -17 -445zm-675 -12l617 10 13 445 -612 -5 -18 -450zm-18 -487l621 10 14 447 -617 -12 -18 -445zm679 10l626 12 9 443 -621 -8 -14 -447zm-4 -482l626 10 0 445 -622 -13 -4 -442zm-688 -18l626 15 4 445 -621 -10 -9 -450zm-666 477l621 10 18 448 -617 -10 -22 -448zm-18 -489l626 12 9 448 -622 -10 -13 -450zm-679 -15l626 15 9 447 -622 -10 -13 -452zm2761 1509l613 5 48 442 -608 -5 -53 -442zm675 7l612 7 40 438 -608 -3 -44 -442zm-14 -482l618 10 4 440 -613 -10 -9 -440zm-679 -10l617 7 9 440 -612 -5 -14 -442zm1363 499l613 5 31 438 -608 -5 -36 -438zm670 5l613 5 27 435 -608 -2 -32 -438zm0 -477l618 8 -9 435 -613 -5 4 -438zm-679 -7l617 7 -4 435 -613 -5 0 -437zm0 -482l622 12 -5 435 -617 -7 0 -440zm684 12l621 8 -8 434 -618 -4 5 -438zm4 -475l626 10 -9 435 -626 -10 9 -435zm-683 -17l621 15 -4 437 -626 -12 9 -440zm-684 470l622 10 0 440 -618 -10 -4 -440zm0 -480l626 12 -4 438 -626 -10 4 -440zm-688 -17l626 15 0 439 -622 -9 -4 -445zm-5882 1898l608 5 93 453 -599 0 -102 -458zm-662 -2l609 0 102 457 -600 3 -111 -460zm-665 -5l608 2 111 460 -600 0 -119 -462zm-662 -2l608 2 116 460 -600 0 -124 -462zm4644 27l603 0 71 447 -603 0 -71 -447zm-662 -5l604 2 75 450 -599 -2 -80 -450zm-666 -3l608 3 80 450 -599 0 -89 -453zm-661 -5l608 5 89 453 -600 -3 -97 -455zm3316 20l604 5 53 443 -599 -3 -58 -445zm-661 -5l603 5 62 445 -599 -2 -66 -448zm-2877 -1521l621 10 40 458 -617 -8 -44 -460zm-2721 -37l621 10 58 462 -617 -5 -62 -467zm146 1019l613 5 128 462 -608 -2 -133 -465zm666 5l613 5 124 462 -608 -2 -129 -465zm-71 -507l617 7 58 463 -617 -5 -58 -465zm-675 -7l617 7 62 462 -612 -5 -67 -464zm1421 519l612 5 116 460 -608 -3 -120 -462zm670 7l613 5 106 458 -608 -5 -111 -458zm-67 -504l618 7 48 458 -612 -8 -54 -457zm-674 -8l621 8 49 457 -613 -2 -57 -463zm-58 -504l626 5 49 460 -622 -3 -53 -462zm679 5l626 12 45 458 -622 -8 -49 -462zm-31 -500l622 13 26 457 -621 -10 -27 -460zm-683 -10l625 8 27 462 -621 -7 -31 -463zm-644 495l621 7 54 463 -617 -5 -58 -465zm-40 -507l621 12 31 463 -621 -10 -31 -465zm-679 -10l626 10 26 462 -621 -7 -31 -465zm2867 1548l613 5 102 458 -608 -3 -107 -460zm671 8l612 2 94 455 -609 0 -97 -457zm-54 -502l618 7 39 455 -617 -5 -40 -457zm-674 -8l617 8 44 457 -612 -5 -49 -460zm1398 512l617 8 84 452 -608 -2 -93 -458zm670 8l613 2 80 453 -608 0 -85 -455zm-44 -495l617 5 31 450 -612 -2 -36 -453zm-670 -10l617 10 31 453 -613 -8 -35 -455zm-40 -499l621 12 31 455 -617 -10 -35 -457zm679 12l621 8 27 452 -617 -5 -31 -455zm-22 -492l626 7 13 453 -622 -8 -17 -452zm-679 -12l621 10 18 454 -622 -12 -17 -452zm-662 484l622 8 35 455 -617 -5 -40 -458zm-27 -497l626 8 18 457 -621 -8 -23 -457zm-683 -12l626 10 22 457 -622 -7 -26 -460zm-2668 -1571l630 15 -53 460 -630 -13 53 -462zm-67 1014l631 15 -5 462 -626 -7 0 -470zm688 15l626 12 -9 463 -621 -10 4 -465zm9 -510l631 15 -9 463 -631 -10 9 -468zm-688 -12l630 12 -8 465 -626 -12 4 -465zm1367 534l626 13 -9 460 -625 -8 8 -465zm684 13l626 12 -13 458 -622 -10 9 -460zm13 -502l631 12 -14 457 -626 -9 9 -460zm-683 -15l626 12 -9 460 -631 -10 14 -462zm57 -502l631 12 -58 460 -626 -15 53 -457zm684 15l630 17 -53 452 -630 -12 53 -457zm62 -505l631 20 -54 457 -630 -15 53 -462zm-688 -17l630 17 -53 460 -630 -15 53 -462zm-750 487l630 17 -53 460 -630 -15 53 -462zm58 -507l630 20 -53 460 -631 -15 54 -465zm-688 -17l630 17 -53 462 -631 -12 54 -467zm2623 1578l626 12 -13 457 -626 -12 13 -457zm679 15l631 12 -14 452 -626 -7 9 -457zm27 -502l626 14 -22 458 -626 -15 22 -457zm-688 -18l630 18 -22 457 -621 -15 13 -460zm1354 535l626 12 -18 452 -621 -12 13 -452zm683 12l626 12 -17 450 -626 -7 17 -455zm23 -495l630 13 -22 452 -631 -12 23 -453zm-688 -17l630 15 -18 455 -630 -15 18 -455zm66 -495l622 18 -54 450 -626 -15 58 -453zm679 20l631 15 -53 448 -631 -15 53 -448zm67 -494l630 15 -57 452 -626 -17 53 -450zm-688 -23l630 20 -57 453 -626 -20 53 -453zm-750 480l630 15 -58 452 -626 -15 54 -452zm62 -500l626 18 -54 455 -630 -18 58 -455zm-688 -22l630 20 -58 455 -630 -15 58 -460zm10956 825l630 18 -62 422 -626 -17 58 -423zm6326 -5192l608 38 -44 402 -609 -32 45 -408zm-2637 -171l604 40 -58 410 -604 -35 58 -415zm-133 907l608 35 -67 410 -612 -32 71 -413zm666 40l608 35 -62 407 -617 -35 71 -407zm62 -453l603 38 -53 410 -608 -35 58 -413zm-662 -39l608 34 -62 415 -608 -37 62 -412zm1270 529l608 37 -62 405 -613 -32 67 -410zm661 40l613 35 -58 405 -612 -35 57 -405zm54 -448l612 38 -53 405 -608 -35 49 -408zm-662 -39l613 34 -53 411 -613 -35 53 -410zm62 -450l604 40 -49 405 -608 -35 53 -410zm657 42l604 37 -44 408 -609 -35 49 -410zm58 -447l599 39 -48 411 -600 -43 49 -407zm-653 -45l600 42 -54 408 -599 -37 53 -413zm-723 408l604 37 -58 410 -604 -37 58 -410zm66 -453l600 40 -58 410 -599 -37 57 -413zm-652 -45l595 40 -58 413 -599 -37 62 -416zm2464 1514l612 35 -53 402 -617 -29 58 -408zm666 37l612 33 -53 402 -613 -32 54 -403zm48 -445l609 35 -45 403 -608 -30 44 -408zm-661 -34l608 32 -49 405 -608 -32 49 -405zm1283 514l613 35 -49 400 -613 -32 49 -403zm666 37l608 30 -40 398 -617 -27 49 -401zm40 -442l608 35 -36 400 -612 -30 40 -405zm-662 -35l608 33 -39 402 -613 -32 44 -403zm45 -445l603 38 -35 402 -608 -35 40 -405zm657 43l603 32 -31 403 -608 -33 36 -402zm44 -440l599 34 -35 403 -599 -37 35 -400zm-652 -43l599 38 -40 402 -599 -34 40 -406zm-711 403l604 35 -40 405 -604 -32 40 -408zm45 -442l603 34 -40 406 -599 -38 36 -402zm-653 -43l599 38 -40 405 -603 -35 44 -408zm-289 2225l618 30 -63 405 -617 -28 62 -407zm-2699 -142l617 32 -75 413 -617 -30 75 -415zm-164 907l622 28 -71 415 -626 -28 75 -415zm679 30l622 30 -67 410 -626 -25 71 -415zm80 -450l617 30 -71 413 -621 -30 75 -413zm-679 -32l622 30 -76 412 -621 -27 75 -415zm1283 514l622 28 -67 410 -626 -25 71 -413zm679 33l622 27 -62 408 -626 -28 66 -407zm71 -448l622 30 -67 408 -621 -28 66 -410zm-675 -29l618 27 -67 410 -622 -30 71 -407zm76 -453l617 30 -67 410 -621 -27 71 -413zm675 33l617 34 -67 405 -621 -29 71 -410zm71 -445l617 32 -67 408 -617 -30 67 -410zm-666 -35l612 32 -71 405 -612 -30 71 -407zm-755 412l617 33 -71 410 -621 -32 75 -411zm80 -452l613 32 -71 413 -617 -32 75 -413zm-670 -35l612 33 -71 412 -617 -35 76 -410zm2477 1482l621 24 -62 408 -626 -25 67 -407zm679 27l622 27 -63 405 -621 -24 62 -408zm67 -440l617 27 -58 403 -626 -25 67 -405zm-680 -32l622 27 -62 408 -622 -28 62 -407zm1292 502l626 27 -57 400 -626 -22 57 -405zm679 30l626 24 -57 401 -622 -25 53 -400zm63 -440l621 27 -58 400 -621 -25 58 -402zm-675 -30l617 27 -58 403 -621 -25 62 -405zm62 -443l617 30 -58 400 -617 -27 58 -403zm675 33l617 27 -53 403 -622 -28 58 -402zm58 -440l617 30 -54 402 -617 -30 54 -402zm-666 -35l612 32 -57 400 -618 -27 63 -405zm-742 410l617 30 -62 403 -617 -28 62 -405zm67 -442l612 30 -57 405 -617 -33 62 -402zm-670 -35l612 30 -62 405 -617 -27 67 -408zm-5851 2003l626 25 -76 422 -626 -22 76 -425zm-2744 -124l626 27 -80 430 -630 -25 84 -432zm-173 944l630 23 -84 432 -630 -20 84 -435zm693 25l625 25 -79 427 -631 -22 85 -430zm84 -467l626 25 -76 427 -626 -25 76 -427zm-693 -30l631 27 -76 428 -630 -22 75 -433zm1292 524l631 23 -80 427 -631 -22 80 -428zm693 25l630 25 -80 425 -630 -22 80 -428zm84 -462l626 25 -71 422 -630 -24 75 -423zm-693 -30l631 25 -76 425 -630 -25 75 -425zm85 -467l626 27 -76 428 -630 -28 80 -427zm688 32l626 28 -76 425 -630 -28 80 -425zm102 -467l626 32 -93 423 -626 -30 93 -425zm-688 -35l626 30 -93 428 -626 -28 93 -430zm-786 438l626 30 -80 427 -626 -27 80 -430zm107 -470l626 30 -94 430 -630 -28 98 -432zm-688 -32l626 29 -94 433 -630 -30 98 -432zm2477 1521l630 22 -80 423 -630 -20 80 -425zm688 25l630 22 -80 422 -626 -22 76 -422zm80 -460l630 27 -71 415 -630 -25 71 -417zm-688 -25l626 22 -71 420 -626 -22 71 -420zm1296 509l630 23 -80 417 -630 -20 80 -420zm688 25l630 23 -80 417 -630 -22 80 -418zm75 -455l631 25 -71 413 -626 -23 66 -415zm-683 -27l626 25 -67 415 -630 -22 71 -418zm75 -460l626 25 -71 420 -630 -25 75 -420zm684 28l626 27 -71 418 -626 -25 71 -420zm93 -458l626 33 -84 415 -626 -28 84 -420zm-683 -27l625 25 -84 417 -626 -24 85 -418zm-777 427l626 28 -71 422 -631 -27 76 -423zm97 -459l626 30 -89 417 -625 -27 88 -420zm-688 -30l626 27 -89 420 -626 -27 89 -420zm5390 686l625 22 -62 405 -626 -20 63 -407zm-2744 -110l626 28 -67 412 -630 -22 71 -418zm-146 910l625 20 -75 415 -630 -17 80 -418zm683 22l631 20 -76 413 -630 -17 75 -416zm76 -449l626 22 -63 410 -630 -22 67 -410zm-688 -25l630 22 -67 410 -630 -20 67 -412zm1305 497l630 20 -80 410 -626 -18 76 -412zm688 22l626 23 -76 407 -630 -20 80 -410zm71 -447l626 25 -62 405 -631 -23 67 -407zm-688 -23l630 23 -66 407 -626 -19 62 -411zm71 -449l626 22 -67 410 -626 -22 67 -410zm683 24l626 25 -62 408 -630 -22 66 -411zm85 -449l626 27 -76 408 -626 -25 76 -410zm-684 -28l626 25 -75 410 -626 -22 75 -413zm-772 423l626 25 -67 412 -626 -22 67 -415zm88 -453l626 28 -80 412 -625 -24 79 -416zm-683 -27l626 25 -80 415 -626 -25 80 -415zm2517 1454l630 17 -75 408 -631 -17 76 -408zm688 20l630 20 -75 405 -630 -17 75 -408zm67 -442l630 19 -62 403 -626 -17 58 -405zm-684 -23l626 20 -58 405 -630 -20 62 -405zm1309 487l631 20 -76 403 -630 -18 75 -405zm684 20l631 20 -72 403 -630 -18 71 -405zm67 -440l630 23 -58 400 -630 -20 58 -403zm-684 -22l626 22 -58 400 -630 -19 62 -403zm62 -442l626 22 -58 403 -630 -20 62 -405zm684 24l626 23 -58 400 -626 -20 58 -403zm75 -440l626 23 -66 402 -626 -22 66 -403zm-683 -27l626 25 -67 403 -626 -23 67 -405zm-764 418l626 22 -62 405 -626 -22 62 -405zm80 -443l626 23 -71 402 -626 -22 71 -403zm-684 -30l626 28 -71 402 -626 -22 71 -408zm-5185 -1625l617 32 -84 423 -621 -32 88 -423zm-2699 -159l617 35 -97 430 -622 -35 102 -430zm-217 939l626 35 -89 428 -626 -30 89 -433zm683 38l626 32 -88 425 -626 -30 88 -427zm107 -470l617 37 -93 425 -622 -32 98 -430zm-684 -35l622 32 -98 430 -621 -32 97 -430zm1257 540l621 29 -84 428 -622 -33 85 -424zm683 34l622 30 -80 425 -626 -30 84 -425zm98 -462l621 32 -88 423 -622 -32 89 -423zm-679 -37l617 32 -89 425 -622 -32 94 -425zm102 -468l617 35 -93 425 -617 -35 93 -425zm679 40l617 35 -93 423 -617 -35 93 -423zm102 -464l613 39 -93 423 -613 -38 93 -424zm-675 -43l613 38 -93 425 -617 -35 97 -428zm-777 428l618 37 -98 425 -617 -32 97 -430zm107 -468l613 38 -94 425 -617 -38 98 -425zm-675 -42l613 38 -98 427 -617 -35 102 -430zm2397 1549l622 32 -80 420 -621 -27 79 -425zm684 34l622 33 -76 417 -626 -30 80 -420zm93 -457l617 32 -84 420 -621 -32 88 -420zm-683 -37l621 35 -84 420 -626 -30 89 -425zm1269 529l622 30 -76 415 -621 -27 75 -418zm680 33l621 32 -71 415 -626 -32 76 -415zm84 -455l621 34 -80 416 -621 -33 80 -417zm-675 -35l617 32 -80 418 -621 -30 84 -420zm89 -457l617 34 -80 418 -621 -35 84 -417zm675 37l617 35 -80 415 -617 -33 80 -417zm88 -455l613 37 -80 413 -617 -35 84 -415zm-670 -37l613 32 -80 418 -617 -33 84 -417zm-763 417l617 35 -85 418 -621 -33 89 -420zm93 -462l612 40 -84 417 -617 -37 89 -420zm-675 -37l613 35 -85 420 -617 -33 89 -422zm266 -1382l600 42 -71 418 -609 -38 80 -422zm-2641 -191l604 42 -89 427 -604 -40 89 -429zm-200 937l608 42 -97 425 -613 -40 102 -427zm671 44l608 40 -93 425 -613 -37 98 -428zm93 -467l608 40 -89 427 -608 -40 89 -427zm-666 -47l608 42 -89 430 -612 -42 93 -430zm1238 556l609 43 -89 422 -613 -40 93 -425zm666 48l613 39 -89 421 -612 -38 88 -422zm89 -465l608 42 -80 420 -608 -37 80 -425zm-666 -45l608 40 -84 425 -608 -42 84 -423zm93 -467l604 42 -80 425 -603 -42 79 -425zm662 50l604 42 -76 422 -608 -42 80 -422zm93 -465l599 47 -79 420 -600 -42 80 -425zm-657 -50l595 45 -80 425 -599 -45 84 -425zm-755 415l604 45 -84 427 -604 -44 84 -428zm98 -464l599 44 -84 425 -599 -42 84 -427zm-657 -53l599 48 -88 427 -600 -45 89 -430zm2366 1586l613 40 -84 415 -613 -35 84 -420zm671 42l612 40 -80 415 -612 -37 80 -418zm79 -460l609 43 -71 417 -613 -40 75 -420zm-665 -42l608 37 -76 420 -612 -37 80 -420zm1251 544l609 40 -71 410 -617 -34 79 -416zm666 43l609 37 -72 413 -612 -38 75 -412zm71 -458l609 43 -67 412 -608 -37 66 -418zm-661 -42l608 40 -71 417 -608 -39 71 -418zm80 -457l599 42 -62 415 -608 -40 71 -417zm657 47l599 40 -58 415 -608 -42 67 -413zm66 -457l600 45 -62 412 -595 -40 57 -417zm-648 -45l595 40 -62 417 -599 -42 66 -415zm-732 408l599 44 -66 418 -609 -42 76 -420zm80 -460l599 47 -71 415 -599 -42 71 -420zm-657 -45l599 42 -75 420 -600 -44 76 -418zm4372 6161l631 18 -62 407 -631 -15 62 -410zm-2756 -74l630 17 -62 415 -631 -15 63 -417zm-125 912l626 12 -53 415 -626 -10 53 -417zm684 15l626 12 -58 415 -621 -12 53 -415zm62 -455l630 15 -57 412 -631 -12 58 -415zm-688 -17l630 17 -53 415 -630 -15 53 -417zm1314 487l630 12 -62 410 -626 -10 58 -412zm684 15l630 12 -62 410 -626 -15 58 -407zm66 -453l631 18 -63 407 -625 -12 57 -413zm-683 -15l626 13 -58 412 -626 -12 58 -413zm62 -450l630 18 -62 407 -626 -12 58 -413zm688 18l630 17 -62 408 -630 -18 62 -407zm66 -450l631 20 -58 408 -630 -15 57 -413zm-683 -20l626 18 -58 412 -630 -17 62 -413zm-759 433l626 17 -58 410 -630 -15 62 -412zm66 -455l631 20 -62 412 -631 -17 62 -415zm-688 -18l631 15 -63 415 -630 -15 62 -415zm2557 1422l626 15 -62 405 -626 -10 62 -410zm684 15l626 10 -67 407 -626 -9 67 -408zm71 -447l626 14 -62 406 -631 -13 67 -407zm-688 -15l630 12 -66 410 -626 -15 62 -407zm1305 474l626 13 -67 405 -626 -10 67 -408zm684 15l630 10 -71 405 -626 -12 67 -403zm75 -442l630 12 -71 405 -626 -14 67 -403zm-688 -15l630 15 -66 403 -631 -13 67 -405zm67 -442l630 14 -62 403 -631 -15 63 -402zm688 17l630 15 -62 400 -631 -12 63 -403zm71 -442l630 17 -62 403 -630 -15 62 -405zm-688 -20l630 20 -62 402 -631 -17 63 -405zm-764 427l630 15 -62 403 -626 -13 58 -405zm71 -447l630 20 -62 405 -630 -18 62 -407zm-688 -20l630 20 -62 405 -630 -13 62 -412zm-315 2239l621 8 -66 410 -622 -8 67 -410zm-2726 -42l622 7 -49 418 -617 -7 44 -418zm-93 917l612 3 -35 417 -608 -2 31 -418zm666 5l617 5 -45 415 -608 -5 36 -415zm49 -455l617 8 -49 412 -613 -5 45 -415zm-671 -10l617 8 -49 417 -612 -5 44 -420zm1297 470l612 5 -49 413 -608 -3 45 -415zm670 5l612 5 -57 413 -608 -5 53 -413zm58 -452l617 7 -63 413 -612 -8 58 -412zm-675 -5l617 5 -53 412 -617 -2 53 -415zm62 -453l621 5 -57 413 -617 -5 53 -413zm679 8l622 12 -63 410 -617 -10 58 -412zm45 -450l625 12 -48 413 -622 -12 45 -413zm-684 -10l626 10 -45 413 -621 -8 40 -415zm-724 442l622 8 -53 415 -618 -8 49 -415zm40 -457l622 15 -40 413 -622 -8 40 -420zm-683 -10l626 10 -40 418 -622 -10 36 -418zm2552 1394l613 5 -62 410 -609 -4 58 -411zm671 8l612 5 -71 407 -608 -2 67 -410zm66 -447l622 5 -71 407 -613 -5 62 -407zm-670 -10l617 7 -67 410 -612 -7 62 -410zm1278 462l613 5 -80 407 -608 -5 75 -407zm666 5l613 5 -85 405 -608 -3 80 -407zm80 -443l617 5 -80 406 -612 -5 75 -406zm-675 -7l617 5 -71 408 -617 -5 71 -408zm80 -447l622 10 -76 405 -617 -8 71 -407zm679 12l622 8 -80 405 -617 -10 75 -403zm58 -442l626 10 -58 402 -621 -7 53 -405zm-679 -10l626 7 -58 408 -621 -13 53 -402zm-741 432l625 8 -71 407 -621 -7 67 -408zm53 -447l626 12 -54 405 -621 -7 49 -410zm-679 -10l621 10 -49 407 -621 -7 49 -410zm-5501 363l626 7 -31 425 -621 -7 26 -425zm-2721 -52l622 12 -14 432 -617 -10 9 -434zm-13 951l612 8 18 432 -608 -5 -22 -435zm670 8l617 7 9 430 -608 -5 -18 -432zm9 -475l617 13 -13 427 -613 -7 9 -433zm-679 -7l617 7 -9 433 -613 -5 5 -435zm1340 489l613 10 5 425 -609 -5 -9 -430zm675 10l613 8 -5 425 -608 -5 0 -428zm18 -469l617 9 -27 425 -612 -4 22 -430zm-679 -10l617 10 -18 427 -617 -7 18 -430zm22 -473l621 13 -22 427 -617 -7 18 -433zm684 13l621 12 -27 425 -621 -7 27 -430zm17 -465l626 12 -26 428 -622 -12 22 -428zm-688 -15l626 15 -18 425 -625 -10 17 -430zm-692 457l621 10 -18 430 -617 -10 14 -430zm13 -472l622 13 -14 432 -626 -12 18 -433zm-688 -15l626 15 -13 433 -626 -13 13 -435zm2659 1457l613 5 -9 425 -604 -5 0 -425zm675 5l612 7 -17 423 -604 -5 9 -425zm27 -465l617 10 -32 422 -612 -7 27 -425zm-680 -8l622 5 -31 428 -613 -5 22 -428zm1323 480l613 5 -27 420 -604 -2 18 -423zm666 5l613 10 -27 418 -608 -5 22 -423zm40 -460l617 10 -44 420 -613 -10 40 -420zm-675 -5l617 5 -35 420 -617 -5 35 -420zm40 -464l622 10 -40 420 -617 -8 35 -422zm679 12l622 10 -44 418 -618 -10 40 -418zm32 -460l625 15 -35 418 -622 -10 32 -423zm-680 -12l626 10 -35 422 -622 -10 31 -422zm-710 447l622 13 -36 422 -617 -7 31 -428zm27 -460l626 13 -31 420 -622 -10 27 -423zm-688 -12l626 12 -27 423 -622 -10 23 -425zm-2593 -1484l630 23 -57 427 -631 -15 58 -435zm-106 950l630 15 -40 432 -626 -15 36 -432zm692 17l626 12 -40 433 -626 -13 40 -432zm44 -475l626 18 -40 432 -626 -17 40 -433zm-692 -17l630 15 -40 435 -630 -18 40 -432zm1332 509l626 15 -40 428 -626 -15 40 -428zm688 15l626 18 -45 425 -626 -13 45 -430zm49 -467l630 17 -49 428 -626 -17 45 -428zm-693 -20l630 20 -44 425 -626 -15 40 -430zm62 -467l631 17 -58 428 -630 -18 57 -427zm693 20l630 22 -58 423 -630 -18 58 -427zm66 -467l631 22 -58 425 -630 -20 57 -427zm-692 -25l630 22 -58 428 -630 -18 58 -432zm-750 450l630 22 -62 425 -626 -17 58 -430zm62 -473l630 23 -58 430 -630 -20 58 -433zm-693 -22l631 20 -58 432 -631 -20 58 -432zm2579 1489l631 12 -49 425 -626 -12 44 -425zm688 15l631 15 -49 422 -626 -12 44 -425zm54 -465l630 20 -49 420 -626 -15 45 -425zm-688 -18l626 18 -45 422 -630 -12 49 -428zm1323 500l626 12 -54 420 -621 -12 49 -420zm683 12l626 18 -53 417 -626 -12 53 -423zm58 -457l626 18 -53 417 -626 -17 53 -418zm-688 -15l630 13 -53 420 -626 -13 49 -420zm62 -460l630 15 -57 418 -631 -15 58 -418zm688 18l630 20 -62 415 -626 -18 58 -417zm67 -457l630 22 -58 415 -630 -17 58 -420zm-688 -23l630 20 -58 420 -630 -17 58 -423zm-751 440l626 20 -57 420 -631 -20 62 -420zm67 -462l626 22 -58 420 -630 -20 62 -422zm-693 -23l631 20 -62 423 -631 -18 62 -425zm14175 -4339l604 17 0 391 -604 -18 0 -390zm-9 857l608 15 -9 391 -612 -18 13 -388zm5 -427l608 15 -5 390 -608 -15 5 -390zm8 -857l600 17 4 390 -604 -17 0 -390zm-62 2139l617 13 -26 390 -617 -12 26 -391zm-62 850l622 13 -36 390 -621 -12 35 -391zm31 -425l622 15 -31 391 -622 -15 31 -391zm62 -855l613 15 -22 391 -617 -15 26 -391zm-2934 2073l626 15 -49 395 -630 -12 53 -398zm-2739 -82l626 20 -58 398 -626 -18 58 -400zm-124 878l630 14 -75 403 -631 -15 76 -402zm688 17l630 17 -75 396 -631 -13 76 -400zm62 -437l626 17 -53 398 -631 -18 58 -397zm-688 -20l630 17 -58 400 -625 -17 53 -400zm1314 474l630 18 -71 395 -635 -13 76 -400zm688 18l630 17 -71 393 -630 -13 71 -397zm62 -433l626 15 -53 395 -626 -15 53 -395zm-692 -20l634 18 -53 397 -635 -17 54 -398zm57 -435l631 20 -54 398 -630 -17 53 -401zm688 20l626 18 -53 397 -626 -17 53 -398zm67 -432l626 17 -58 395 -626 -17 58 -395zm-688 -22l630 19 -57 396 -631 -20 58 -395zm-750 412l626 20 -54 400 -630 -20 58 -400zm71 -435l626 20 -63 398 -626 -20 63 -398zm-684 -25l626 20 -62 400 -626 -17 62 -403zm2557 1387l630 13 -71 395 -630 -13 71 -395zm693 15l625 12 -71 393 -630 -12 76 -393zm53 -430l630 15 -49 390 -630 -12 49 -393zm-688 -15l626 10 -49 395 -631 -12 54 -393zm1318 457l631 13 -71 393 -631 -13 71 -393zm693 15l630 10 -71 391 -630 -10 71 -391zm53 -427l630 12 -48 388 -631 -12 49 -388zm-688 -15l626 12 -49 391 -626 -13 49 -390zm49 -430l626 15 -49 390 -626 -12 49 -393zm688 15l626 12 -45 393 -630 -12 49 -393zm58 -428l625 13 -48 390 -626 -12 49 -391zm-689 -17l626 15 -48 390 -626 -12 48 -393zm-741 410l626 15 -49 395 -626 -12 49 -398zm62 -430l626 18 -53 392 -626 -15 53 -395zm-688 -17l626 15 -53 397 -626 -15 53 -397zm2681 497l626 10 -44 390 -626 -10 44 -390zm-97 852l630 10 -71 390 -630 -7 71 -393zm49 -425l630 10 -44 388 -631 -10 45 -388zm102 -855l626 10 -45 391 -626 -10 45 -391zm-2593 -1364l617 17 -35 398 -622 -20 40 -395zm-2694 -109l617 27 -49 398 -622 -23 54 -402zm-116 877l626 20 -53 402 -626 -19 53 -403zm679 22l622 23 -49 400 -621 -23 48 -400zm58 -435l617 25 -49 398 -621 -23 53 -400zm-679 -22l621 22 -53 398 -621 -22 53 -398zm1301 485l625 19 -44 398 -630 -22 49 -395zm683 22l622 20 -45 395 -626 -20 49 -395zm49 -432l622 22 -45 395 -621 -20 44 -397zm-679 -28l621 28 -44 395 -626 -23 49 -400zm49 -435l621 25 -44 398 -622 -23 45 -400zm679 30l617 22 -44 396 -618 -23 45 -395zm44 -435l617 25 -44 395 -613 -22 40 -398zm-670 -30l617 30 -44 395 -622 -25 49 -400zm-724 410l617 23 -48 397 -622 -22 53 -398zm54 -437l612 25 -49 397 -612 -24 49 -398zm-671 -30l613 27 -49 398 -617 -22 53 -403zm2548 1409l622 18 -40 395 -626 -17 44 -396zm684 18l622 20 -40 392 -626 -15 44 -397zm40 -428l622 20 -36 393 -626 -18 40 -395zm-679 -20l621 18 -40 395 -621 -17 40 -396zm1318 470l622 15 -40 393 -622 -15 40 -393zm684 18l621 14 -35 391 -626 -15 40 -390zm35 -428l622 15 -36 393 -621 -15 35 -393zm-679 -20l617 18 -31 392 -626 -17 40 -393zm36 -430l617 20 -31 390 -622 -17 36 -393zm679 20l617 20 -31 390 -617 -17 31 -393zm31 -427l617 19 -31 391 -617 -20 31 -390zm-670 -23l612 20 -31 393 -617 -20 36 -393zm-711 408l617 22 -35 393 -622 -20 40 -395zm40 -428l613 18 -36 392 -617 -17 40 -393zm-674 -25l612 20 -35 396 -617 -20 40 -396zm75 -1294l604 22 -14 395 -608 -25 18 -392zm-2637 -132l604 30 -27 400 -608 -30 31 -400zm-71 877l608 28 -40 397 -612 -25 44 -400zm666 30l608 27 -35 396 -613 -25 40 -398zm31 -440l608 32 -31 398 -608 -27 31 -403zm-661 -27l608 27 -36 400 -608 -30 36 -397zm1296 497l612 27 -31 395 -617 -24 36 -398zm670 32l608 25 -31 393 -612 -25 35 -393zm22 -437l609 30 -23 395 -608 -28 22 -397zm-665 -30l612 27 -27 400 -612 -29 27 -398zm31 -435l603 30 -17 397 -613 -29 27 -398zm661 32l604 30 -18 393 -608 -25 22 -398zm22 -435l600 33 -18 392 -600 -27 18 -398zm-657 -32l604 30 -22 395 -604 -30 22 -395zm-683 400l599 32 -22 398 -608 -30 31 -400zm31 -437l599 32 -27 398 -599 -33 27 -397zm-653 -35l599 32 -31 398 -599 -27 31 -403zm2553 1437l612 22 -26 390 -613 -20 27 -392zm670 24l613 20 -23 390 -612 -19 22 -391zm18 -435l608 25 -18 393 -608 -20 18 -398zm-666 -22l608 20 -18 398 -612 -25 22 -393zm1314 480l612 20 -22 392 -612 -22 22 -390zm670 25l608 17 -13 390 -613 -17 18 -390zm9 -433l608 22 -9 391 -608 -18 9 -395zm-666 -22l608 20 -13 395 -608 -23 13 -392zm14 -430l603 22 -9 393 -603 -23 9 -392zm661 25l604 22 -5 390 -603 -20 4 -392zm9 -430l599 25 -4 390 -600 -20 5 -395zm-657 -25l599 22 -9 393 -599 -22 9 -393zm-670 402l603 25 -13 393 -604 -22 14 -396zm17 -432l600 27 -14 393 -599 -25 13 -395zm-657 -25l600 23 -18 392 -600 -22 18 -393zm2153 5662l626 5 -62 390 -630 -8 66 -387zm-164 855l626 5 -89 390 -626 -3 89 -392zm688 5l626 5 -93 392 -622 -7 89 -390zm-595 -435l631 7 -89 390 -626 -5 84 -392zm142 -853l631 5 -67 393 -630 -7 66 -391zm-421 2138l621 2 -120 393 -617 0 116 -395zm-253 862l612 0 -146 393 -609 0 143 -393zm674 0l613 3 -155 392 -609 -2 151 -393zm129 -430l617 5 -124 390 -613 -2 120 -393zm-679 0l617 0 -120 393 -613 0 116 -393zm812 -430l622 8 -125 390 -617 -5 120 -393zm93 -425l626 5 -88 393 -626 -5 88 -393zm-688 -5l626 5 -84 393 -622 -5 80 -393zm-2810 408l622 5 -102 397 -617 -5 97 -397zm-2721 -32l622 7 -85 403 -617 -5 80 -405zm-173 884l613 3 -94 402 -603 -2 84 -403zm670 3l613 5 -102 402 -604 -2 93 -405zm89 -438l617 5 -89 403 -612 -7 84 -401zm-675 -7l617 5 -84 403 -613 -5 80 -403zm1252 450l617 7 -106 398 -609 -3 98 -402zm675 7l613 3 -111 397 -609 -2 107 -398zm98 -440l617 8 -98 397 -613 -2 94 -403zm-680 -5l622 5 -89 400 -621 -2 88 -403zm102 -437l626 7 -93 398 -621 -5 88 -400zm684 7l622 8 -98 397 -617 -4 93 -401zm71 -435l626 10 -71 398 -621 -10 66 -398zm-688 -7l630 7 -66 398 -626 -7 62 -398zm-746 425l622 10 -89 398 -617 -5 84 -403zm67 -437l626 9 -67 401 -621 -8 62 -402zm-684 -8l626 8 -62 402 -622 -7 58 -403zm2442 1340l617 2 -120 398 -608 -3 111 -397zm675 5l612 2 -124 398 -608 -5 120 -395zm111 -435l617 2 -107 395 -613 -2 103 -395zm-680 -5l617 5 -102 395 -612 -3 97 -397zm1239 442l613 0 -134 395 -608 3 129 -398zm670 0l613 5 -138 393 -608 0 133 -398zm120 -432l617 7 -115 393 -613 -3 111 -397zm-679 0l621 0 -111 397 -617 -2 107 -395zm120 -435l626 7 -111 393 -622 -5 107 -395zm683 7l622 3 -116 392 -617 -2 111 -393zm89 -430l622 5 -80 393 -622 -3 80 -395zm-688 -5l626 5 -80 393 -621 -3 75 -395zm-763 423l625 5 -106 395 -622 -3 103 -397zm79 -430l626 5 -75 395 -622 -5 71 -395zm-683 -8l626 5 -76 398 -621 -5 71 -398zm-2513 -1359l631 15 -67 397 -626 -9 62 -403zm-146 882l630 8 -75 402 -626 -10 71 -400zm688 10l626 10 -76 400 -626 -10 76 -400zm75 -440l631 13 -76 400 -626 -13 71 -400zm-683 -10l626 10 -72 400 -625 -10 71 -400zm1291 463l631 7 -76 400 -630 -10 75 -397zm688 9l626 10 -79 398 -626 -10 79 -398zm85 -434l626 9 -76 398 -626 -12 76 -395zm-693 -13l635 10 -75 398 -635 -10 75 -398zm67 -437l635 15 -62 395 -635 -13 62 -397zm692 15l631 12 -67 395 -626 -10 62 -397zm71 -435l631 15 -62 395 -631 -13 62 -397zm-692 -18l635 15 -62 400 -635 -15 62 -400zm-759 423l630 15 -62 397 -630 -12 62 -400zm71 -438l630 15 -62 398 -630 -12 62 -401zm-688 -15l630 13 -62 400 -630 -10 62 -403zm2530 1362l626 8 -80 395 -626 -5 80 -398zm688 8l631 10 -85 395 -626 -7 80 -398zm89 -430l630 10 -84 393 -626 -8 80 -395zm-693 -13l631 10 -80 398 -626 -10 75 -398zm1292 453l626 5 -89 395 -625 -5 88 -395zm688 7l626 8 -88 392 -626 -7 88 -393zm89 -430l631 8 -85 390 -630 -5 84 -393zm-688 -7l626 5 -80 395 -630 -7 84 -393zm67 -430l630 7 -67 391 -625 -5 62 -393zm692 10l631 10 -67 387 -630 -7 66 -390zm71 -430l631 10 -63 393 -630 -10 62 -393zm-692 -10l630 10 -62 390 -630 -7 62 -393zm-759 417l630 10 -62 393 -631 -10 63 -393zm71 -432l630 12 -62 393 -631 -7 63 -398zm-688 -12l630 12 -67 395 -630 -10 67 -397z"/>
 </g>
</svg>
